<?xml version="1.0" encoding="utf-8" standalone="no"?>
<!DOCTYPE svg PUBLIC "-//W3C//DTD SVG 1.1//EN"
  "http://www.w3.org/Graphics/SVG/1.1/DTD/svg11.dtd">
<!-- Created with matplotlib (http://matplotlib.org/) -->
<svg height="331pt" version="1.1" viewBox="0 0 496 331" width="496pt" xmlns="http://www.w3.org/2000/svg" xmlns:xlink="http://www.w3.org/1999/xlink">
 <defs>
  <style type="text/css">
*{stroke-linecap:butt;stroke-linejoin:round;stroke-miterlimit:100000;}
  </style>
 </defs>
 <g id="figure_1">
  <g id="patch_1">
   <path d="M 0 331.744687 
L 496.782812 331.744687 
L 496.782812 0 
L 0 0 
z
" style="fill:#ffffff;"/>
  </g>
  <g id="axes_1">
   <g id="patch_2">
    <path clip-path="url(#p7446f39010)" d="M 56.123722 198.714063 
L 65.969135 198.714063 
L 65.969135 136.489063 
L 56.123722 136.489063 
z
" style="fill:#e5ecff;"/>
   </g>
   <g id="patch_3">
    <path clip-path="url(#p7446f39010)" d="M 65.969135 198.714063 
L 75.814548 198.714063 
L 75.814548 136.489063 
L 65.969135 136.489063 
z
" style="fill:#ffffe5;"/>
   </g>
   <g id="patch_4">
    <path clip-path="url(#p7446f39010)" d="M 144.732442 198.714063 
L 154.577855 198.714063 
L 154.577855 136.489063 
L 144.732442 136.489063 
z
" style="fill:#ffffe5;"/>
   </g>
   <g id="patch_5">
    <path clip-path="url(#p7446f39010)" d="M 191.498155 198.714063 
L 201.343569 198.714063 
L 201.343569 136.489063 
L 191.498155 136.489063 
z
" style="fill:#e5ecff;"/>
   </g>
   <g id="patch_6">
    <path clip-path="url(#p7446f39010)" d="M 201.343569 198.714063 
L 211.188982 198.714063 
L 211.188982 136.489063 
L 201.343569 136.489063 
z
" style="fill:#ffffe5;"/>
   </g>
   <g id="patch_7">
    <path clip-path="url(#p7446f39010)" d="M 211.188982 198.714063 
L 221.034395 198.714063 
L 221.034395 136.489063 
L 211.188982 136.489063 
z
" style="fill:#e5ecff;"/>
   </g>
   <g id="patch_8">
    <path clip-path="url(#p7446f39010)" d="M 376.099656 198.714063 
L 385.945069 198.714063 
L 385.945069 136.489063 
L 376.099656 136.489063 
z
" style="fill:#e5ecff;"/>
   </g>
   <g id="patch_9">
    <path clip-path="url(#p7446f39010)" d="M 402.354091 198.714063 
L 412.199504 198.714063 
L 412.199504 136.489063 
L 402.354091 136.489063 
z
" style="fill:#e5ecff;"/>
   </g>
   <g id="patch_10">
    <path clip-path="url(#p7446f39010)" d="M 422.044918 198.714063 
L 431.890331 198.714063 
L 431.890331 136.489063 
L 422.044918 136.489063 
z
" style="fill:#e5ecff;"/>
   </g>
   <g id="patch_11">
    <path clip-path="url(#p7446f39010)" d="M 458.144767 198.714063 
L 468.810631 198.714063 
L 468.810631 136.489063 
L 458.144767 136.489063 
z
" style="fill:#e5ecff;"/>
   </g>
   <g id="patch_12">
    <path clip-path="url(#p7446f39010)" d="M 56.123722 136.489063 
L 228.418455 136.489063 
L 228.418455 74.264063 
L 56.123722 74.264063 
z
" style="fill:#e5ecff;"/>
   </g>
   <g id="patch_13">
    <path clip-path="url(#p7446f39010)" d="M 376.099656 136.489063 
L 466.349278 136.489063 
L 466.349278 74.264063 
L 376.099656 74.264063 
z
" style="fill:#ffffe5;"/>
   </g>
   <g id="patch_14">
    <path clip-path="url(#p7446f39010)" d="M 376.099656 99.154063 
L 466.349278 99.154063 
L 466.349278 68.041563 
L 376.099656 68.041563 
z
" style="fill:#b2df8a;stroke:#000000;stroke-linejoin:miter;"/>
   </g>
   <g id="patch_15">
    <path clip-path="url(#p7446f39010)" d="M 431.890331 161.379063 
L 458.144767 161.379063 
L 458.144767 130.266562 
L 431.890331 130.266562 
z
" style="fill:#cab2d6;stroke:#000000;stroke-linejoin:miter;"/>
   </g>
   <g id="patch_16">
    <path clip-path="url(#p7446f39010)" d="M 458.144767 167.601562 
L 468.810631 167.601562 
L 468.810631 136.489062 
L 458.144767 136.489062 
z
" style="fill:#ffff99;stroke:#000000;stroke-linejoin:miter;"/>
   </g>
   <g id="patch_17">
    <path clip-path="url(#p7446f39010)" d="M 462.903383 229.826563 
L 464.052015 229.826563 
L 464.052015 198.714063 
L 462.903383 198.714063 
z
" style="fill:#a6cee3;"/>
   </g>
   <g id="patch_18">
    <path clip-path="url(#p7446f39010)" d="M 458.144767 229.826563 
L 459.457489 229.826563 
L 459.457489 198.714063 
L 458.144767 198.714063 
z
" style="fill:#a6cee3;"/>
   </g>
   <g id="patch_19">
    <path clip-path="url(#p7446f39010)" d="M 461.754752 223.604062 
L 462.903383 223.604062 
L 462.903383 192.491562 
L 461.754752 192.491562 
z
" style="fill:#a6cee3;"/>
   </g>
   <g id="patch_20">
    <path clip-path="url(#p7446f39010)" d="M 459.457489 223.604062 
L 460.60612 223.604062 
L 460.60612 192.491562 
L 459.457489 192.491562 
z
" style="fill:#a6cee3;"/>
   </g>
   <g id="patch_21">
    <path clip-path="url(#p7446f39010)" d="M 465.200646 229.826563 
L 466.349278 229.826563 
L 466.349278 198.714063 
L 465.200646 198.714063 
z
" style="fill:#a6cee3;"/>
   </g>
   <g id="patch_22">
    <path clip-path="url(#p7446f39010)" d="M 466.349278 223.604062 
L 467.497909 223.604062 
L 467.497909 192.491562 
L 466.349278 192.491562 
z
" style="fill:#a6cee3;"/>
   </g>
   <g id="patch_23">
    <path clip-path="url(#p7446f39010)" d="M 460.60612 229.826563 
L 461.754752 229.826563 
L 461.754752 198.714063 
L 460.60612 198.714063 
z
" style="fill:#a6cee3;"/>
   </g>
   <g id="patch_24">
    <path clip-path="url(#p7446f39010)" d="M 467.497909 229.826563 
L 468.941903 229.826563 
L 468.941903 198.714063 
L 467.497909 198.714063 
z
" style="fill:#a6cee3;"/>
   </g>
   <g id="patch_25">
    <path clip-path="url(#p7446f39010)" d="M 464.052015 223.604062 
L 465.200646 223.604062 
L 465.200646 192.491562 
L 464.052015 192.491562 
z
" style="fill:#a6cee3;"/>
   </g>
   <g id="patch_26">
    <path clip-path="url(#p7446f39010)" d="M 402.354091 167.601562 
L 412.199504 167.601562 
L 412.199504 136.489062 
L 402.354091 136.489062 
z
" style="fill:#ffff99;stroke:#000000;stroke-linejoin:miter;"/>
   </g>
   <g id="patch_27">
    <path clip-path="url(#p7446f39010)" d="M 405.143625 223.604062 
L 406.292256 223.604062 
L 406.292256 192.491562 
L 405.143625 192.491562 
z
" style="fill:#a6cee3;"/>
   </g>
   <g id="patch_28">
    <path clip-path="url(#p7446f39010)" d="M 406.292256 229.826563 
L 407.440888 229.826563 
L 407.440888 198.714063 
L 406.292256 198.714063 
z
" style="fill:#a6cee3;"/>
   </g>
   <g id="patch_29">
    <path clip-path="url(#p7446f39010)" d="M 410.886783 229.826563 
L 412.347186 229.826563 
L 412.347186 198.714063 
L 410.886783 198.714063 
z
" style="fill:#a6cee3;"/>
   </g>
   <g id="patch_30">
    <path clip-path="url(#p7446f39010)" d="M 409.738151 223.604062 
L 410.886783 223.604062 
L 410.886783 192.491562 
L 409.738151 192.491562 
z
" style="fill:#a6cee3;"/>
   </g>
   <g id="patch_31">
    <path clip-path="url(#p7446f39010)" d="M 407.440888 223.604062 
L 408.58952 223.604062 
L 408.58952 192.491562 
L 407.440888 192.491562 
z
" style="fill:#a6cee3;"/>
   </g>
   <g id="patch_32">
    <path clip-path="url(#p7446f39010)" d="M 408.58952 229.826563 
L 409.738151 229.826563 
L 409.738151 198.714063 
L 408.58952 198.714063 
z
" style="fill:#a6cee3;"/>
   </g>
   <g id="patch_33">
    <path clip-path="url(#p7446f39010)" d="M 402.846362 223.604062 
L 403.994993 223.604062 
L 403.994993 192.491562 
L 402.846362 192.491562 
z
" style="fill:#a6cee3;"/>
   </g>
   <g id="patch_34">
    <path clip-path="url(#p7446f39010)" d="M 403.994993 229.826563 
L 405.143625 229.826563 
L 405.143625 198.714063 
L 403.994993 198.714063 
z
" style="fill:#a6cee3;"/>
   </g>
   <g id="patch_35">
    <path clip-path="url(#p7446f39010)" d="M 402.354091 229.826563 
L 402.846362 229.826563 
L 402.846362 198.714063 
L 402.354091 198.714063 
z
" style="fill:#a6cee3;"/>
   </g>
   <g id="patch_36">
    <path clip-path="url(#p7446f39010)" d="M 412.199504 161.379063 
L 422.044918 161.379063 
L 422.044918 130.266562 
L 412.199504 130.266562 
z
" style="fill:#cab2d6;stroke:#000000;stroke-linejoin:miter;"/>
   </g>
   <g id="patch_37">
    <path clip-path="url(#p7446f39010)" d="M 376.099656 167.601562 
L 385.945069 167.601562 
L 385.945069 136.489062 
L 376.099656 136.489062 
z
" style="fill:#ffff99;stroke:#000000;stroke-linejoin:miter;"/>
   </g>
   <g id="patch_38">
    <path clip-path="url(#p7446f39010)" d="M 378.889189 229.826563 
L 380.037821 229.826563 
L 380.037821 198.714063 
L 378.889189 198.714063 
z
" style="fill:#a6cee3;"/>
   </g>
   <g id="patch_39">
    <path clip-path="url(#p7446f39010)" d="M 380.037821 223.604062 
L 381.186452 223.604062 
L 381.186452 192.491562 
L 380.037821 192.491562 
z
" style="fill:#a6cee3;"/>
   </g>
   <g id="patch_40">
    <path clip-path="url(#p7446f39010)" d="M 383.483716 229.826563 
L 384.632347 229.826563 
L 384.632347 198.714063 
L 383.483716 198.714063 
z
" style="fill:#a6cee3;"/>
   </g>
   <g id="patch_41">
    <path clip-path="url(#p7446f39010)" d="M 381.186452 229.826563 
L 382.335084 229.826563 
L 382.335084 198.714063 
L 381.186452 198.714063 
z
" style="fill:#a6cee3;"/>
   </g>
   <g id="patch_42">
    <path clip-path="url(#p7446f39010)" d="M 384.632347 223.604062 
L 386.076341 223.604062 
L 386.076341 192.491562 
L 384.632347 192.491562 
z
" style="fill:#a6cee3;"/>
   </g>
   <g id="patch_43">
    <path clip-path="url(#p7446f39010)" d="M 376.591926 229.826563 
L 377.740558 229.826563 
L 377.740558 198.714063 
L 376.591926 198.714063 
z
" style="fill:#a6cee3;"/>
   </g>
   <g id="patch_44">
    <path clip-path="url(#p7446f39010)" d="M 377.740558 223.604062 
L 378.889189 223.604062 
L 378.889189 192.491562 
L 377.740558 192.491562 
z
" style="fill:#a6cee3;"/>
   </g>
   <g id="patch_45">
    <path clip-path="url(#p7446f39010)" d="M 382.335084 223.604062 
L 383.483716 223.604062 
L 383.483716 192.491562 
L 382.335084 192.491562 
z
" style="fill:#a6cee3;"/>
   </g>
   <g id="patch_46">
    <path clip-path="url(#p7446f39010)" d="M 376.099656 223.604062 
L 376.591926 223.604062 
L 376.591926 192.491562 
L 376.099656 192.491562 
z
" style="fill:#a6cee3;"/>
   </g>
   <g id="patch_47">
    <path clip-path="url(#p7446f39010)" d="M 385.945069 161.379063 
L 402.354091 161.379063 
L 402.354091 130.266562 
L 385.945069 130.266562 
z
" style="fill:#cab2d6;stroke:#000000;stroke-linejoin:miter;"/>
   </g>
   <g id="patch_48">
    <path clip-path="url(#p7446f39010)" d="M 422.044918 167.601562 
L 431.890331 167.601562 
L 431.890331 136.489062 
L 422.044918 136.489062 
z
" style="fill:#ffff99;stroke:#000000;stroke-linejoin:miter;"/>
   </g>
   <g id="patch_49">
    <path clip-path="url(#p7446f39010)" d="M 424.834452 229.826563 
L 425.983083 229.826563 
L 425.983083 198.714063 
L 424.834452 198.714063 
z
" style="fill:#a6cee3;"/>
   </g>
   <g id="patch_50">
    <path clip-path="url(#p7446f39010)" d="M 425.983083 223.604062 
L 427.131715 223.604062 
L 427.131715 192.491562 
L 425.983083 192.491562 
z
" style="fill:#a6cee3;"/>
   </g>
   <g id="patch_51">
    <path clip-path="url(#p7446f39010)" d="M 430.577609 223.604062 
L 432.038012 223.604062 
L 432.038012 192.491562 
L 430.577609 192.491562 
z
" style="fill:#a6cee3;"/>
   </g>
   <g id="patch_52">
    <path clip-path="url(#p7446f39010)" d="M 429.428978 229.826563 
L 430.577609 229.826563 
L 430.577609 198.714063 
L 429.428978 198.714063 
z
" style="fill:#a6cee3;"/>
   </g>
   <g id="patch_53">
    <path clip-path="url(#p7446f39010)" d="M 427.131715 229.826563 
L 428.280346 229.826563 
L 428.280346 198.714063 
L 427.131715 198.714063 
z
" style="fill:#a6cee3;"/>
   </g>
   <g id="patch_54">
    <path clip-path="url(#p7446f39010)" d="M 428.280346 223.604062 
L 429.428978 223.604062 
L 429.428978 192.491562 
L 428.280346 192.491562 
z
" style="fill:#a6cee3;"/>
   </g>
   <g id="patch_55">
    <path clip-path="url(#p7446f39010)" d="M 422.537188 229.826563 
L 423.68582 229.826563 
L 423.68582 198.714063 
L 422.537188 198.714063 
z
" style="fill:#a6cee3;"/>
   </g>
   <g id="patch_56">
    <path clip-path="url(#p7446f39010)" d="M 423.68582 223.604062 
L 424.834452 223.604062 
L 424.834452 192.491562 
L 423.68582 192.491562 
z
" style="fill:#a6cee3;"/>
   </g>
   <g id="patch_57">
    <path clip-path="url(#p7446f39010)" d="M 422.044918 223.604062 
L 422.537188 223.604062 
L 422.537188 192.491562 
L 422.044918 192.491562 
z
" style="fill:#a6cee3;"/>
   </g>
   <g id="patch_58">
    <path clip-path="url(#p7446f39010)" d="M 302.259055 105.376563 
L 376.099656 105.376563 
L 376.099656 74.264063 
L 302.259055 74.264063 
z
" style="fill:#dddddd;stroke:#000000;stroke-linejoin:miter;"/>
   </g>
   <g id="patch_59">
    <path clip-path="url(#p7446f39010)" d="M 56.123722 105.376563 
L 228.418455 105.376563 
L 228.418455 74.264063 
L 56.123722 74.264063 
z
" style="fill:#fb9a99;stroke:#000000;stroke-linejoin:miter;"/>
   </g>
   <g id="patch_60">
    <path clip-path="url(#p7446f39010)" d="M 191.498155 167.601562 
L 201.343569 167.601562 
L 201.343569 136.489062 
L 191.498155 136.489062 
z
" style="fill:#ffff99;stroke:#000000;stroke-linejoin:miter;"/>
   </g>
   <g id="patch_61">
    <path clip-path="url(#p7446f39010)" d="M 197.897674 223.604062 
L 199.046305 223.604062 
L 199.046305 192.491562 
L 197.897674 192.491562 
z
" style="fill:#a6cee3;"/>
   </g>
   <g id="patch_62">
    <path clip-path="url(#p7446f39010)" d="M 201.343569 229.826563 
L 202.65629 229.826563 
L 202.65629 198.714063 
L 201.343569 198.714063 
z
" style="fill:#a6cee3;"/>
   </g>
   <g id="patch_63">
    <path clip-path="url(#p7446f39010)" d="M 196.749042 229.826563 
L 197.897674 229.826563 
L 197.897674 198.714063 
L 196.749042 198.714063 
z
" style="fill:#a6cee3;"/>
   </g>
   <g id="patch_64">
    <path clip-path="url(#p7446f39010)" d="M 193.303148 223.604062 
L 194.451779 223.604062 
L 194.451779 192.491562 
L 193.303148 192.491562 
z
" style="fill:#a6cee3;"/>
   </g>
   <g id="patch_65">
    <path clip-path="url(#p7446f39010)" d="M 194.451779 229.826563 
L 195.600411 229.826563 
L 195.600411 198.714063 
L 194.451779 198.714063 
z
" style="fill:#a6cee3;"/>
   </g>
   <g id="patch_66">
    <path clip-path="url(#p7446f39010)" d="M 191.498155 223.604062 
L 192.154516 223.604062 
L 192.154516 192.491562 
L 191.498155 192.491562 
z
" style="fill:#a6cee3;"/>
   </g>
   <g id="patch_67">
    <path clip-path="url(#p7446f39010)" d="M 192.154516 229.826563 
L 193.303148 229.826563 
L 193.303148 198.714063 
L 192.154516 198.714063 
z
" style="fill:#a6cee3;"/>
   </g>
   <g id="patch_68">
    <path clip-path="url(#p7446f39010)" d="M 195.600411 223.604062 
L 196.749042 223.604062 
L 196.749042 192.491562 
L 195.600411 192.491562 
z
" style="fill:#a6cee3;"/>
   </g>
   <g id="patch_69">
    <path clip-path="url(#p7446f39010)" d="M 200.194937 223.604062 
L 201.343569 223.604062 
L 201.343569 192.491562 
L 200.194937 192.491562 
z
" style="fill:#a6cee3;"/>
   </g>
   <g id="patch_70">
    <path clip-path="url(#p7446f39010)" d="M 199.046305 229.826563 
L 200.194937 229.826563 
L 200.194937 198.714063 
L 199.046305 198.714063 
z
" style="fill:#a6cee3;"/>
   </g>
   <g id="patch_71">
    <path clip-path="url(#p7446f39010)" d="M 221.034395 161.379063 
L 230.879809 161.379063 
L 230.879809 130.266562 
L 221.034395 130.266562 
z
" style="fill:#cab2d6;stroke:#000000;stroke-linejoin:miter;"/>
   </g>
   <g id="patch_72">
    <path clip-path="url(#p7446f39010)" d="M 211.188982 167.601562 
L 221.034395 167.601562 
L 221.034395 136.489062 
L 211.188982 136.489062 
z
" style="fill:#ffff99;stroke:#000000;stroke-linejoin:miter;"/>
   </g>
   <g id="patch_73">
    <path clip-path="url(#p7446f39010)" d="M 217.588501 223.604062 
L 218.737132 223.604062 
L 218.737132 192.491562 
L 217.588501 192.491562 
z
" style="fill:#a6cee3;"/>
   </g>
   <g id="patch_74">
    <path clip-path="url(#p7446f39010)" d="M 221.034395 229.826563 
L 222.347117 229.826563 
L 222.347117 198.714063 
L 221.034395 198.714063 
z
" style="fill:#a6cee3;"/>
   </g>
   <g id="patch_75">
    <path clip-path="url(#p7446f39010)" d="M 216.439869 229.826563 
L 217.588501 229.826563 
L 217.588501 198.714063 
L 216.439869 198.714063 
z
" style="fill:#a6cee3;"/>
   </g>
   <g id="patch_76">
    <path clip-path="url(#p7446f39010)" d="M 212.993974 223.604062 
L 214.142606 223.604062 
L 214.142606 192.491562 
L 212.993974 192.491562 
z
" style="fill:#a6cee3;"/>
   </g>
   <g id="patch_77">
    <path clip-path="url(#p7446f39010)" d="M 214.142606 229.826563 
L 215.291237 229.826563 
L 215.291237 198.714063 
L 214.142606 198.714063 
z
" style="fill:#a6cee3;"/>
   </g>
   <g id="patch_78">
    <path clip-path="url(#p7446f39010)" d="M 211.188982 229.826563 
L 211.845343 229.826563 
L 211.845343 198.714063 
L 211.188982 198.714063 
z
" style="fill:#a6cee3;"/>
   </g>
   <g id="patch_79">
    <path clip-path="url(#p7446f39010)" d="M 211.845343 229.826563 
L 212.993974 229.826563 
L 212.993974 198.714063 
L 211.845343 198.714063 
z
" style="fill:#a6cee3;"/>
   </g>
   <g id="patch_80">
    <path clip-path="url(#p7446f39010)" d="M 215.291237 223.604062 
L 216.439869 223.604062 
L 216.439869 192.491562 
L 215.291237 192.491562 
z
" style="fill:#a6cee3;"/>
   </g>
   <g id="patch_81">
    <path clip-path="url(#p7446f39010)" d="M 219.885764 223.604062 
L 221.034395 223.604062 
L 221.034395 192.491562 
L 219.885764 192.491562 
z
" style="fill:#a6cee3;"/>
   </g>
   <g id="patch_82">
    <path clip-path="url(#p7446f39010)" d="M 218.737132 229.826563 
L 219.885764 229.826563 
L 219.885764 198.714063 
L 218.737132 198.714063 
z
" style="fill:#a6cee3;"/>
   </g>
   <g id="patch_83">
    <path clip-path="url(#p7446f39010)" d="M 65.969135 161.379063 
L 75.814548 161.379063 
L 75.814548 130.266562 
L 65.969135 130.266562 
z
" style="fill:#ffff99;stroke:#000000;stroke-linejoin:miter;"/>
   </g>
   <g id="patch_84">
    <path clip-path="url(#p7446f39010)" d="M 72.368654 223.604062 
L 73.517285 223.604062 
L 73.517285 192.491562 
L 72.368654 192.491562 
z
" style="fill:#a6cee3;"/>
   </g>
   <g id="patch_85">
    <path clip-path="url(#p7446f39010)" d="M 75.814548 229.826563 
L 77.12727 229.826563 
L 77.12727 198.714063 
L 75.814548 198.714063 
z
" style="fill:#a6cee3;"/>
   </g>
   <g id="patch_86">
    <path clip-path="url(#p7446f39010)" d="M 71.220022 229.826563 
L 72.368654 229.826563 
L 72.368654 198.714063 
L 71.220022 198.714063 
z
" style="fill:#a6cee3;"/>
   </g>
   <g id="patch_87">
    <path clip-path="url(#p7446f39010)" d="M 67.774127 223.604062 
L 68.922759 223.604062 
L 68.922759 192.491562 
L 67.774127 192.491562 
z
" style="fill:#a6cee3;"/>
   </g>
   <g id="patch_88">
    <path clip-path="url(#p7446f39010)" d="M 68.922759 229.826563 
L 70.071391 229.826563 
L 70.071391 198.714063 
L 68.922759 198.714063 
z
" style="fill:#a6cee3;"/>
   </g>
   <g id="patch_89">
    <path clip-path="url(#p7446f39010)" d="M 65.969135 223.604062 
L 66.625496 223.604062 
L 66.625496 192.491562 
L 65.969135 192.491562 
z
" style="fill:#a6cee3;"/>
   </g>
   <g id="patch_90">
    <path clip-path="url(#p7446f39010)" d="M 66.625496 229.826563 
L 67.774127 229.826563 
L 67.774127 198.714063 
L 66.625496 198.714063 
z
" style="fill:#a6cee3;"/>
   </g>
   <g id="patch_91">
    <path clip-path="url(#p7446f39010)" d="M 70.071391 223.604062 
L 71.220022 223.604062 
L 71.220022 192.491562 
L 70.071391 192.491562 
z
" style="fill:#a6cee3;"/>
   </g>
   <g id="patch_92">
    <path clip-path="url(#p7446f39010)" d="M 74.665917 223.604062 
L 75.814548 223.604062 
L 75.814548 192.491562 
L 74.665917 192.491562 
z
" style="fill:#a6cee3;"/>
   </g>
   <g id="patch_93">
    <path clip-path="url(#p7446f39010)" d="M 73.517285 229.826563 
L 74.665917 229.826563 
L 74.665917 198.714063 
L 73.517285 198.714063 
z
" style="fill:#a6cee3;"/>
   </g>
   <g id="patch_94">
    <path clip-path="url(#p7446f39010)" d="M 154.577855 167.601562 
L 164.423268 167.601562 
L 164.423268 136.489062 
L 154.577855 136.489062 
z
" style="fill:#cab2d6;stroke:#000000;stroke-linejoin:miter;"/>
   </g>
   <g id="patch_95">
    <path clip-path="url(#p7446f39010)" d="M 115.196202 167.601562 
L 144.732442 167.601562 
L 144.732442 136.489062 
L 115.196202 136.489062 
z
" style="fill:#cab2d6;stroke:#000000;stroke-linejoin:miter;"/>
   </g>
   <g id="patch_96">
    <path clip-path="url(#p7446f39010)" d="M 56.123722 167.601562 
L 65.969135 167.601562 
L 65.969135 136.489062 
L 56.123722 136.489062 
z
" style="fill:#ffff99;stroke:#000000;stroke-linejoin:miter;"/>
   </g>
   <g id="patch_97">
    <path clip-path="url(#p7446f39010)" d="M 65.312774 229.826563 
L 66.625496 229.826563 
L 66.625496 198.714063 
L 65.312774 198.714063 
z
" style="fill:#a6cee3;"/>
   </g>
   <g id="patch_98">
    <path clip-path="url(#p7446f39010)" d="M 58.420985 229.826563 
L 59.569616 229.826563 
L 59.569616 198.714063 
L 58.420985 198.714063 
z
" style="fill:#a6cee3;"/>
   </g>
   <g id="patch_99">
    <path clip-path="url(#p7446f39010)" d="M 61.866879 223.604062 
L 63.015511 223.604062 
L 63.015511 192.491562 
L 61.866879 192.491562 
z
" style="fill:#a6cee3;"/>
   </g>
   <g id="patch_100">
    <path clip-path="url(#p7446f39010)" d="M 57.272353 223.604062 
L 58.420985 223.604062 
L 58.420985 192.491562 
L 57.272353 192.491562 
z
" style="fill:#a6cee3;"/>
   </g>
   <g id="patch_101">
    <path clip-path="url(#p7446f39010)" d="M 59.569616 223.604062 
L 60.718248 223.604062 
L 60.718248 192.491562 
L 59.569616 192.491562 
z
" style="fill:#a6cee3;"/>
   </g>
   <g id="patch_102">
    <path clip-path="url(#p7446f39010)" d="M 56.123722 229.826563 
L 57.272353 229.826563 
L 57.272353 198.714063 
L 56.123722 198.714063 
z
" style="fill:#a6cee3;"/>
   </g>
   <g id="patch_103">
    <path clip-path="url(#p7446f39010)" d="M 64.164142 223.604062 
L 65.312774 223.604062 
L 65.312774 192.491562 
L 64.164142 192.491562 
z
" style="fill:#a6cee3;"/>
   </g>
   <g id="patch_104">
    <path clip-path="url(#p7446f39010)" d="M 60.718248 229.826563 
L 61.866879 229.826563 
L 61.866879 198.714063 
L 60.718248 198.714063 
z
" style="fill:#a6cee3;"/>
   </g>
   <g id="patch_105">
    <path clip-path="url(#p7446f39010)" d="M 63.015511 229.826563 
L 64.164142 229.826563 
L 64.164142 198.714063 
L 63.015511 198.714063 
z
" style="fill:#a6cee3;"/>
   </g>
   <g id="patch_106">
    <path clip-path="url(#p7446f39010)" d="M 85.659962 161.379063 
L 115.196202 161.379063 
L 115.196202 130.266562 
L 85.659962 130.266562 
z
" style="fill:#cab2d6;stroke:#000000;stroke-linejoin:miter;"/>
   </g>
   <g id="patch_107">
    <path clip-path="url(#p7446f39010)" d="M 164.423268 161.379063 
L 191.498155 161.379063 
L 191.498155 130.266562 
L 164.423268 130.266562 
z
" style="fill:#cab2d6;stroke:#000000;stroke-linejoin:miter;"/>
   </g>
   <g id="patch_108">
    <path clip-path="url(#p7446f39010)" d="M 144.732442 161.379063 
L 154.577855 161.379063 
L 154.577855 130.266562 
L 144.732442 130.266562 
z
" style="fill:#ffff99;stroke:#000000;stroke-linejoin:miter;"/>
   </g>
   <g id="patch_109">
    <path clip-path="url(#p7446f39010)" d="M 151.13196 223.604062 
L 152.280592 223.604062 
L 152.280592 192.491562 
L 151.13196 192.491562 
z
" style="fill:#a6cee3;"/>
   </g>
   <g id="patch_110">
    <path clip-path="url(#p7446f39010)" d="M 154.577855 229.826563 
L 155.890577 229.826563 
L 155.890577 198.714063 
L 154.577855 198.714063 
z
" style="fill:#a6cee3;"/>
   </g>
   <g id="patch_111">
    <path clip-path="url(#p7446f39010)" d="M 149.983329 229.826563 
L 151.13196 229.826563 
L 151.13196 198.714063 
L 149.983329 198.714063 
z
" style="fill:#a6cee3;"/>
   </g>
   <g id="patch_112">
    <path clip-path="url(#p7446f39010)" d="M 146.537434 223.604062 
L 147.686066 223.604062 
L 147.686066 192.491562 
L 146.537434 192.491562 
z
" style="fill:#a6cee3;"/>
   </g>
   <g id="patch_113">
    <path clip-path="url(#p7446f39010)" d="M 147.686066 229.826563 
L 148.834697 229.826563 
L 148.834697 198.714063 
L 147.686066 198.714063 
z
" style="fill:#a6cee3;"/>
   </g>
   <g id="patch_114">
    <path clip-path="url(#p7446f39010)" d="M 144.732442 223.604062 
L 145.388803 223.604062 
L 145.388803 192.491562 
L 144.732442 192.491562 
z
" style="fill:#a6cee3;"/>
   </g>
   <g id="patch_115">
    <path clip-path="url(#p7446f39010)" d="M 145.388803 229.826563 
L 146.537434 229.826563 
L 146.537434 198.714063 
L 145.388803 198.714063 
z
" style="fill:#a6cee3;"/>
   </g>
   <g id="patch_116">
    <path clip-path="url(#p7446f39010)" d="M 148.834697 223.604062 
L 149.983329 223.604062 
L 149.983329 192.491562 
L 148.834697 192.491562 
z
" style="fill:#a6cee3;"/>
   </g>
   <g id="patch_117">
    <path clip-path="url(#p7446f39010)" d="M 153.429224 223.604062 
L 154.577855 223.604062 
L 154.577855 192.491562 
L 153.429224 192.491562 
z
" style="fill:#a6cee3;"/>
   </g>
   <g id="patch_118">
    <path clip-path="url(#p7446f39010)" d="M 152.280592 229.826563 
L 153.429224 229.826563 
L 153.429224 198.714063 
L 152.280592 198.714063 
z
" style="fill:#a6cee3;"/>
   </g>
   <g id="patch_119">
    <path clip-path="url(#p7446f39010)" d="M 201.343569 161.379063 
L 211.188982 161.379063 
L 211.188982 130.266562 
L 201.343569 130.266562 
z
" style="fill:#ffff99;stroke:#000000;stroke-linejoin:miter;"/>
   </g>
   <g id="patch_120">
    <path clip-path="url(#p7446f39010)" d="M 207.743087 223.604062 
L 208.891719 223.604062 
L 208.891719 192.491562 
L 207.743087 192.491562 
z
" style="fill:#a6cee3;"/>
   </g>
   <g id="patch_121">
    <path clip-path="url(#p7446f39010)" d="M 211.188982 223.604062 
L 212.501704 223.604062 
L 212.501704 192.491562 
L 211.188982 192.491562 
z
" style="fill:#a6cee3;"/>
   </g>
   <g id="patch_122">
    <path clip-path="url(#p7446f39010)" d="M 206.594456 229.826563 
L 207.743087 229.826563 
L 207.743087 198.714063 
L 206.594456 198.714063 
z
" style="fill:#a6cee3;"/>
   </g>
   <g id="patch_123">
    <path clip-path="url(#p7446f39010)" d="M 203.148561 223.604062 
L 204.297193 223.604062 
L 204.297193 192.491562 
L 203.148561 192.491562 
z
" style="fill:#a6cee3;"/>
   </g>
   <g id="patch_124">
    <path clip-path="url(#p7446f39010)" d="M 204.297193 229.826563 
L 205.445824 229.826563 
L 205.445824 198.714063 
L 204.297193 198.714063 
z
" style="fill:#a6cee3;"/>
   </g>
   <g id="patch_125">
    <path clip-path="url(#p7446f39010)" d="M 201.343569 223.604062 
L 201.999929 223.604062 
L 201.999929 192.491562 
L 201.343569 192.491562 
z
" style="fill:#a6cee3;"/>
   </g>
   <g id="patch_126">
    <path clip-path="url(#p7446f39010)" d="M 201.999929 229.826563 
L 203.148561 229.826563 
L 203.148561 198.714063 
L 201.999929 198.714063 
z
" style="fill:#a6cee3;"/>
   </g>
   <g id="patch_127">
    <path clip-path="url(#p7446f39010)" d="M 205.445824 223.604062 
L 206.594456 223.604062 
L 206.594456 192.491562 
L 205.445824 192.491562 
z
" style="fill:#a6cee3;"/>
   </g>
   <g id="patch_128">
    <path clip-path="url(#p7446f39010)" d="M 210.04035 223.604062 
L 211.188982 223.604062 
L 211.188982 192.491562 
L 210.04035 192.491562 
z
" style="fill:#a6cee3;"/>
   </g>
   <g id="patch_129">
    <path clip-path="url(#p7446f39010)" d="M 208.891719 229.826563 
L 210.04035 229.826563 
L 210.04035 198.714063 
L 208.891719 198.714063 
z
" style="fill:#a6cee3;"/>
   </g>
   <g id="patch_130">
    <path clip-path="url(#p7446f39010)" d="M 75.814548 167.601562 
L 85.659962 167.601562 
L 85.659962 136.489062 
L 75.814548 136.489062 
z
" style="fill:#cab2d6;stroke:#000000;stroke-linejoin:miter;"/>
   </g>
   <g id="patch_131">
    <path clip-path="url(#p7446f39010)" d="M 228.418455 99.154063 
L 302.259055 99.154063 
L 302.259055 68.041563 
L 228.418455 68.041563 
z
" style="fill:#dddddd;stroke:#000000;stroke-linejoin:miter;"/>
   </g>
   <g id="legend_1">
    <g id="patch_132">
     <path d="M 46.282813 280.857188 
L 70.282813 280.857188 
L 70.282813 272.457188 
L 46.282813 272.457188 
z
" style="fill:#b2df8a;stroke:#000000;stroke-linejoin:miter;"/>
    </g>
    <g id="text_1">
     <!-- Golden Gate Blocks Assembly -->
     <defs>
      <path d="M 75.203125 0 
L 75.203125 34.8125 
Q 75.203125 42.578125 72.171875 46.140625 
Q 69.140625 49.703125 62.890625 49.703125 
Q 54.734375 49.703125 50.828125 45.203125 
Q 46.921875 40.71875 46.921875 31.109375 
L 46.921875 0 
L 42 0 
L 42 36.28125 
Q 42 49.703125 29.6875 49.703125 
Q 21.34375 49.703125 17.53125 44.84375 
Q 13.71875 39.984375 13.71875 29.296875 
L 13.71875 0 
L 8.890625 0 
L 8.890625 53.078125 
L 12.890625 53.078125 
L 13.921875 45.796875 
L 14.203125 45.796875 
Q 16.40625 49.75 20.453125 51.921875 
Q 24.515625 54.109375 29.390625 54.109375 
Q 41.9375 54.109375 45.515625 44.671875 
L 45.703125 44.671875 
Q 48.296875 49.21875 52.65625 51.65625 
Q 57.03125 54.109375 62.59375 54.109375 
Q 71.296875 54.109375 75.640625 49.46875 
Q 79.984375 44.828125 79.984375 34.71875 
L 79.984375 0 
z
" id="OpenSans-Light-6d"/>
      <path d="M 45.90625 0 
L 45.90625 34.421875 
Q 45.90625 42.4375 42.53125 46.0625 
Q 39.15625 49.703125 32.078125 49.703125 
Q 22.5625 49.703125 18.140625 44.890625 
Q 13.71875 40.09375 13.71875 29.296875 
L 13.71875 0 
L 8.890625 0 
L 8.890625 53.078125 
L 12.984375 53.078125 
L 13.921875 45.796875 
L 14.203125 45.796875 
Q 19.390625 54.109375 32.625 54.109375 
Q 50.6875 54.109375 50.6875 34.71875 
L 50.6875 0 
z
" id="OpenSans-Light-6e"/>
      <path d="M 52.78125 26.609375 
Q 52.78125 13.625 46.484375 6.3125 
Q 40.1875 -0.984375 29.109375 -0.984375 
Q 22.125 -0.984375 16.796875 2.390625 
Q 11.46875 5.765625 8.640625 12.0625 
Q 5.8125 18.359375 5.8125 26.609375 
Q 5.8125 39.59375 12.109375 46.84375 
Q 18.40625 54.109375 29.390625 54.109375 
Q 40.328125 54.109375 46.546875 46.75 
Q 52.78125 39.40625 52.78125 26.609375 
M 10.890625 26.609375 
Q 10.890625 15.671875 15.703125 9.546875 
Q 20.515625 3.421875 29.296875 3.421875 
Q 38.09375 3.421875 42.890625 9.546875 
Q 47.703125 15.671875 47.703125 26.609375 
Q 47.703125 37.59375 42.84375 43.640625 
Q 37.984375 49.703125 29.203125 49.703125 
Q 20.40625 49.703125 15.640625 43.671875 
Q 10.890625 37.640625 10.890625 26.609375 
" id="OpenSans-Light-6f"/>
      <path d="M 13.625 23.296875 
L 40.71875 53.078125 
L 46.578125 53.078125 
L 25.6875 30.421875 
L 48.390625 0 
L 42.578125 0 
L 22.40625 26.8125 
L 13.71875 18.890625 
L 13.71875 0 
L 8.890625 0 
L 8.890625 75.984375 
L 13.71875 75.984375 
L 13.71875 37.890625 
L 13.375 23.296875 
z
" id="OpenSans-Light-6b"/>
      <path d="M 13.71875 0 
L 8.890625 0 
L 8.890625 75.984375 
L 13.71875 75.984375 
z
" id="OpenSans-Light-6c"/>
      <path id="OpenSans-Light-20"/>
      <path d="M 38.1875 35.984375 
L 64.5 35.984375 
L 64.5 3.421875 
Q 54.15625 -0.984375 41.21875 -0.984375 
Q 24.3125 -0.984375 15.296875 8.5625 
Q 6.296875 18.109375 6.296875 35.59375 
Q 6.296875 46.484375 10.765625 54.90625 
Q 15.234375 63.328125 23.5625 67.921875 
Q 31.890625 72.515625 42.671875 72.515625 
Q 54.34375 72.515625 63.625 68.21875 
L 61.625 63.71875 
Q 52.34375 68.015625 42.390625 68.015625 
Q 28.265625 68.015625 19.984375 59.296875 
Q 11.71875 50.59375 11.71875 35.796875 
Q 11.71875 19.671875 19.578125 11.546875 
Q 27.4375 3.421875 42.671875 3.421875 
Q 52.546875 3.421875 59.421875 6.203125 
L 59.421875 31.296875 
L 38.1875 31.296875 
z
" id="OpenSans-Light-47"/>
      <path d="M 30.078125 -0.984375 
Q 18.703125 -0.984375 12.25 6.1875 
Q 5.8125 13.375 5.8125 26.21875 
Q 5.8125 39.40625 12.5 46.75 
Q 19.1875 54.109375 30.8125 54.109375 
Q 37.703125 54.109375 44 51.703125 
L 42.671875 47.40625 
Q 35.796875 49.703125 30.71875 49.703125 
Q 20.953125 49.703125 15.921875 43.671875 
Q 10.890625 37.640625 10.890625 26.3125 
Q 10.890625 15.578125 15.921875 9.5 
Q 20.953125 3.421875 29.984375 3.421875 
Q 37.203125 3.421875 43.40625 6 
L 43.40625 1.515625 
Q 38.328125 -0.984375 30.078125 -0.984375 
" id="OpenSans-Light-63"/>
      <path d="M 10.109375 71.390625 
L 29.6875 71.390625 
Q 42.921875 71.390625 49.125 66.890625 
Q 55.328125 62.40625 55.328125 53.328125 
Q 55.328125 47.125 51.53125 43 
Q 47.75 38.875 40.484375 37.703125 
L 40.484375 37.40625 
Q 49.03125 36.140625 53.046875 32 
Q 57.078125 27.875 57.078125 20.515625 
Q 57.078125 10.640625 50.53125 5.3125 
Q 44 0 31.984375 0 
L 10.109375 0 
z
M 15.09375 39.59375 
L 30.8125 39.59375 
Q 40.875 39.59375 45.4375 42.9375 
Q 50 46.296875 50 53.421875 
Q 50 60.546875 44.84375 63.765625 
Q 39.703125 67 29.5 67 
L 15.09375 67 
z
M 15.09375 35.203125 
L 15.09375 4.390625 
L 31.890625 4.390625 
Q 51.703125 4.390625 51.703125 20.515625 
Q 51.703125 35.203125 30.8125 35.203125 
z
" id="OpenSans-Light-42"/>
      <path d="M 44.484375 25.203125 
L 15.484375 25.203125 
L 5.515625 0 
L 0 0 
L 28.71875 71.6875 
L 31.890625 71.6875 
L 60.015625 0 
L 54.390625 0 
z
M 17.28125 29.6875 
L 42.828125 29.6875 
L 33.109375 55.421875 
Q 31.890625 58.453125 30.171875 63.8125 
Q 28.859375 59.125 27.296875 55.328125 
z
" id="OpenSans-Light-41"/>
      <path d="M 28.328125 54.109375 
Q 34.078125 54.109375 38.28125 52 
Q 42.484375 49.90625 45.796875 44.828125 
L 46.09375 44.828125 
Q 45.796875 50.984375 45.796875 56.890625 
L 45.796875 75.984375 
L 50.59375 75.984375 
L 50.59375 0 
L 47.40625 0 
L 46.1875 8.109375 
L 45.796875 8.109375 
Q 39.75 -0.984375 28.421875 -0.984375 
Q 17.4375 -0.984375 11.625 5.859375 
Q 5.8125 12.703125 5.8125 25.78125 
Q 5.8125 39.546875 11.5625 46.828125 
Q 17.328125 54.109375 28.328125 54.109375 
M 28.328125 49.703125 
Q 19.625 49.703125 15.25 43.59375 
Q 10.890625 37.5 10.890625 25.875 
Q 10.890625 3.328125 28.421875 3.328125 
Q 37.40625 3.328125 41.59375 8.546875 
Q 45.796875 13.765625 45.796875 25.78125 
L 45.796875 26.609375 
Q 45.796875 38.921875 41.671875 44.3125 
Q 37.546875 49.703125 28.328125 49.703125 
" id="OpenSans-Light-64"/>
      <path d="M 30.328125 -0.984375 
Q 18.75 -0.984375 12.28125 6.140625 
Q 5.8125 13.28125 5.8125 26.125 
Q 5.8125 38.8125 12.0625 46.453125 
Q 18.3125 54.109375 28.90625 54.109375 
Q 38.28125 54.109375 43.703125 47.5625 
Q 49.125 41.015625 49.125 29.78125 
L 49.125 25.875 
L 10.890625 25.875 
Q 10.984375 14.9375 15.984375 9.171875 
Q 21 3.421875 30.328125 3.421875 
Q 34.859375 3.421875 38.296875 4.046875 
Q 41.75 4.6875 47.015625 6.78125 
L 47.015625 2.390625 
Q 42.53125 0.4375 38.71875 -0.265625 
Q 34.90625 -0.984375 30.328125 -0.984375 
M 28.90625 49.8125 
Q 21.234375 49.8125 16.59375 44.75 
Q 11.96875 39.703125 11.1875 30.171875 
L 44 30.171875 
Q 44 39.40625 39.984375 44.609375 
Q 35.984375 49.8125 28.90625 49.8125 
" id="OpenSans-Light-65"/>
      <path d="M 41.109375 0 
L 39.890625 8.40625 
L 39.5 8.40625 
Q 35.5 3.265625 31.265625 1.140625 
Q 27.046875 -0.984375 21.296875 -0.984375 
Q 13.484375 -0.984375 9.125 3.015625 
Q 4.78125 7.03125 4.78125 14.109375 
Q 4.78125 21.875 11.25 26.171875 
Q 17.71875 30.46875 29.984375 30.71875 
L 40.09375 31 
L 40.09375 34.515625 
Q 40.09375 42.09375 37.015625 45.953125 
Q 33.9375 49.8125 27.09375 49.8125 
Q 19.734375 49.8125 11.8125 45.703125 
L 10.015625 49.90625 
Q 18.75 54 27.296875 54 
Q 36.03125 54 40.34375 49.453125 
Q 44.671875 44.921875 44.671875 35.296875 
L 44.671875 0 
z
M 21.578125 3.421875 
Q 30.078125 3.421875 34.984375 8.28125 
Q 39.890625 13.140625 39.890625 21.78125 
L 39.890625 27 
L 30.609375 26.609375 
Q 19.4375 26.078125 14.671875 23.125 
Q 9.90625 20.171875 9.90625 13.921875 
Q 9.90625 8.9375 12.953125 6.171875 
Q 16.015625 3.421875 21.578125 3.421875 
" id="OpenSans-Light-61"/>
      <path d="M 31.296875 54.109375 
Q 42.4375 54.109375 48.078125 47.09375 
Q 53.71875 40.09375 53.71875 26.609375 
Q 53.71875 13.375 47.78125 6.1875 
Q 41.84375 -0.984375 31.109375 -0.984375 
Q 25.4375 -0.984375 20.890625 1.359375 
Q 16.359375 3.71875 13.71875 8.015625 
L 13.28125 8.015625 
L 11.921875 0 
L 8.890625 0 
L 8.890625 75.984375 
L 13.71875 75.984375 
L 13.71875 56.890625 
Q 13.71875 52.59375 13.53125 48.96875 
L 13.375 44.828125 
L 13.71875 44.828125 
Q 16.75 49.609375 21.015625 51.859375 
Q 25.296875 54.109375 31.296875 54.109375 
M 31.203125 49.703125 
Q 21.828125 49.703125 17.765625 44.328125 
Q 13.71875 38.96875 13.71875 26.609375 
L 13.71875 25.78125 
Q 13.71875 13.765625 17.9375 8.546875 
Q 22.171875 3.328125 31.109375 3.328125 
Q 39.796875 3.328125 44.1875 9.40625 
Q 48.578125 15.484375 48.578125 26.703125 
Q 48.578125 49.703125 31.203125 49.703125 
" id="OpenSans-Light-62"/>
      <path d="M 22.90625 3.328125 
Q 27.484375 3.328125 30.90625 4.109375 
L 30.90625 0.203125 
Q 27.390625 -0.984375 22.796875 -0.984375 
Q 15.765625 -0.984375 12.421875 2.78125 
Q 9.078125 6.546875 9.078125 14.59375 
L 9.078125 48.875 
L 1.21875 48.875 
L 1.21875 51.703125 
L 9.078125 53.90625 
L 11.53125 65.921875 
L 14.015625 65.921875 
L 14.015625 53.078125 
L 29.59375 53.078125 
L 29.59375 48.875 
L 14.015625 48.875 
L 14.015625 15.28125 
Q 14.015625 9.1875 16.15625 6.25 
Q 18.3125 3.328125 22.90625 3.328125 
" id="OpenSans-Light-74"/>
      <path d="M 0 53.078125 
L 4.984375 53.078125 
L 16.21875 23.296875 
Q 21.34375 9.578125 22.703125 4.78125 
L 23 4.78125 
Q 25.046875 11.078125 29.6875 23.578125 
L 40.921875 53.078125 
L 45.90625 53.078125 
L 22.125 -8.59375 
Q 19.234375 -16.109375 17.28125 -18.75 
Q 15.328125 -21.390625 12.71875 -22.703125 
Q 10.109375 -24.03125 6.390625 -24.03125 
Q 3.609375 -24.03125 0.203125 -23 
L 0.203125 -18.796875 
Q 3.03125 -19.578125 6.296875 -19.578125 
Q 8.796875 -19.578125 10.6875 -18.40625 
Q 12.59375 -17.234375 14.125 -14.765625 
Q 15.671875 -12.3125 17.703125 -6.953125 
Q 19.734375 -1.609375 20.3125 0 
z
" id="OpenSans-Light-79"/>
      <path d="M 41.796875 13.8125 
Q 41.796875 6.6875 36.375 2.84375 
Q 30.953125 -0.984375 21 -0.984375 
Q 10.359375 -0.984375 4.109375 2.296875 
L 4.109375 7.515625 
Q 12.109375 3.515625 21 3.515625 
Q 28.859375 3.515625 32.9375 6.125 
Q 37.015625 8.734375 37.015625 13.09375 
Q 37.015625 17.09375 33.765625 19.828125 
Q 30.515625 22.5625 23.09375 25.203125 
Q 15.140625 28.078125 11.90625 30.15625 
Q 8.6875 32.234375 7.046875 34.84375 
Q 5.421875 37.453125 5.421875 41.21875 
Q 5.421875 47.171875 10.421875 50.640625 
Q 15.4375 54.109375 24.421875 54.109375 
Q 33.015625 54.109375 40.71875 50.875 
L 38.921875 46.484375 
Q 31.109375 49.703125 24.421875 49.703125 
Q 17.921875 49.703125 14.109375 47.546875 
Q 10.296875 45.40625 10.296875 41.609375 
Q 10.296875 37.453125 13.25 34.953125 
Q 16.21875 32.46875 24.8125 29.390625 
Q 31.984375 26.8125 35.25 24.734375 
Q 38.53125 22.65625 40.15625 20.015625 
Q 41.796875 17.390625 41.796875 13.8125 
" id="OpenSans-Light-73"/>
     </defs>
     <g transform="translate(79.8828125 280.8571875)scale(0.12 -0.12)">
      <use xlink:href="#OpenSans-Light-47"/>
      <use x="72.314453125" xlink:href="#OpenSans-Light-6f"/>
      <use x="130.908203125" xlink:href="#OpenSans-Light-6c"/>
      <use x="153.515625" xlink:href="#OpenSans-Light-64"/>
      <use x="213.037109375" xlink:href="#OpenSans-Light-65"/>
      <use x="267.919921875" xlink:href="#OpenSans-Light-6e"/>
      <use x="326.904296875" xlink:href="#OpenSans-Light-20"/>
      <use x="352.880859375" xlink:href="#OpenSans-Light-47"/>
      <use x="425.1953125" xlink:href="#OpenSans-Light-61"/>
      <use x="478.173828125" xlink:href="#OpenSans-Light-74"/>
      <use x="511.669921875" xlink:href="#OpenSans-Light-65"/>
      <use x="566.552734375" xlink:href="#OpenSans-Light-20"/>
      <use x="592.529296875" xlink:href="#OpenSans-Light-42"/>
      <use x="655.224609375" xlink:href="#OpenSans-Light-6c"/>
      <use x="677.83203125" xlink:href="#OpenSans-Light-6f"/>
      <use x="736.42578125" xlink:href="#OpenSans-Light-63"/>
      <use x="783.935546875" xlink:href="#OpenSans-Light-6b"/>
      <use x="832.32421875" xlink:href="#OpenSans-Light-73"/>
      <use x="878.90625" xlink:href="#OpenSans-Light-20"/>
      <use x="904.8828125" xlink:href="#OpenSans-Light-41"/>
      <use x="964.892578125" xlink:href="#OpenSans-Light-73"/>
      <use x="1011.47460938" xlink:href="#OpenSans-Light-73"/>
      <use x="1058.05664062" xlink:href="#OpenSans-Light-65"/>
      <use x="1112.93945312" xlink:href="#OpenSans-Light-6d"/>
      <use x="1201.22070312" xlink:href="#OpenSans-Light-62"/>
      <use x="1260.7421875" xlink:href="#OpenSans-Light-6c"/>
      <use x="1283.34960938" xlink:href="#OpenSans-Light-79"/>
     </g>
    </g>
    <g id="patch_133">
     <path d="M 46.282813 298.859062 
L 70.282813 298.859062 
L 70.282813 290.459063 
L 46.282813 290.459063 
z
" style="fill:#cab2d6;stroke:#000000;stroke-linejoin:miter;"/>
    </g>
    <g id="text_2">
     <!-- CheapDNA.com -->
     <defs>
      <path d="M 64.3125 36.375 
Q 64.3125 18.40625 54.875 9.203125 
Q 45.453125 0 27.203125 0 
L 10.109375 0 
L 10.109375 71.390625 
L 29.390625 71.390625 
Q 46.484375 71.390625 55.390625 62.453125 
Q 64.3125 53.515625 64.3125 36.375 
M 58.890625 36.1875 
Q 58.890625 51.515625 51.09375 59.25 
Q 43.3125 67 28.21875 67 
L 15.09375 67 
L 15.09375 4.390625 
L 26.90625 4.390625 
Q 58.890625 4.390625 58.890625 36.1875 
" id="OpenSans-Light-44"/>
      <path d="M 40.578125 67.921875 
Q 27.15625 67.921875 19.4375 59.328125 
Q 11.71875 50.734375 11.71875 35.796875 
Q 11.71875 20.515625 18.984375 12.0625 
Q 26.265625 3.609375 39.796875 3.609375 
Q 48.78125 3.609375 56.296875 5.90625 
L 56.296875 1.515625 
Q 49.21875 -0.984375 38.625 -0.984375 
Q 23.578125 -0.984375 14.9375 8.734375 
Q 6.296875 18.453125 6.296875 35.890625 
Q 6.296875 46.78125 10.421875 55.078125 
Q 14.546875 63.375 22.28125 67.890625 
Q 30.03125 72.40625 40.28125 72.40625 
Q 50.734375 72.40625 58.984375 68.5 
L 56.984375 64.015625 
Q 49.171875 67.921875 40.578125 67.921875 
" id="OpenSans-Light-43"/>
      <path d="M 31.59375 -0.984375 
Q 19.34375 -0.984375 13.71875 8.203125 
L 13.375 8.203125 
L 13.53125 4.109375 
Q 13.71875 0.484375 13.71875 -3.8125 
L 13.71875 -24.03125 
L 8.890625 -24.03125 
L 8.890625 53.078125 
L 12.984375 53.078125 
L 13.921875 45.515625 
L 14.203125 45.515625 
Q 19.671875 54.109375 31.6875 54.109375 
Q 42.4375 54.109375 48.078125 47.046875 
Q 53.71875 39.984375 53.71875 26.515625 
Q 53.71875 13.421875 47.78125 6.21875 
Q 41.84375 -0.984375 31.59375 -0.984375 
M 31.5 3.328125 
Q 39.65625 3.328125 44.109375 9.375 
Q 48.578125 15.4375 48.578125 26.3125 
Q 48.578125 49.703125 31.6875 49.703125 
Q 22.40625 49.703125 18.0625 44.59375 
Q 13.71875 39.5 13.71875 27.984375 
L 13.71875 26.421875 
Q 13.71875 13.96875 17.890625 8.640625 
Q 22.078125 3.328125 31.5 3.328125 
" id="OpenSans-Light-70"/>
      <path d="M 62.015625 0 
L 56.984375 0 
L 14.703125 63.375 
L 14.3125 63.375 
Q 14.890625 52.046875 14.890625 46.296875 
L 14.890625 0 
L 10.109375 0 
L 10.109375 71.390625 
L 15.09375 71.390625 
L 57.328125 8.109375 
L 57.625 8.109375 
Q 57.171875 16.890625 57.171875 24.8125 
L 57.171875 71.390625 
L 62.015625 71.390625 
z
" id="OpenSans-Light-4e"/>
      <path d="M 45.90625 0 
L 45.90625 34.421875 
Q 45.90625 42.4375 42.53125 46.0625 
Q 39.15625 49.703125 32.078125 49.703125 
Q 22.5625 49.703125 18.140625 44.890625 
Q 13.71875 40.09375 13.71875 29.296875 
L 13.71875 0 
L 8.890625 0 
L 8.890625 75.984375 
L 13.71875 75.984375 
L 13.71875 51.8125 
L 13.484375 45.015625 
L 13.8125 45.015625 
Q 16.796875 49.8125 21.328125 51.953125 
Q 25.875 54.109375 32.625 54.109375 
Q 50.6875 54.109375 50.6875 34.71875 
L 50.6875 0 
z
" id="OpenSans-Light-68"/>
      <path d="M 7.90625 3.8125 
Q 7.90625 8.59375 11.8125 8.59375 
Q 15.828125 8.59375 15.828125 3.8125 
Q 15.828125 -0.984375 11.8125 -0.984375 
Q 7.90625 -0.984375 7.90625 3.8125 
" id="OpenSans-Light-2e"/>
     </defs>
     <g transform="translate(79.8828125 298.8590625)scale(0.12 -0.12)">
      <use xlink:href="#OpenSans-Light-43"/>
      <use x="62.109375" xlink:href="#OpenSans-Light-68"/>
      <use x="121.09375" xlink:href="#OpenSans-Light-65"/>
      <use x="175.9765625" xlink:href="#OpenSans-Light-61"/>
      <use x="228.955078125" xlink:href="#OpenSans-Light-70"/>
      <use x="288.4765625" xlink:href="#OpenSans-Light-44"/>
      <use x="359.08203125" xlink:href="#OpenSans-Light-4e"/>
      <use x="431.201171875" xlink:href="#OpenSans-Light-41"/>
      <use x="491.2109375" xlink:href="#OpenSans-Light-2e"/>
      <use x="514.990234375" xlink:href="#OpenSans-Light-63"/>
      <use x="562.5" xlink:href="#OpenSans-Light-6f"/>
      <use x="621.09375" xlink:href="#OpenSans-Light-6d"/>
     </g>
    </g>
    <g id="patch_134">
     <path d="M 46.282813 316.860937 
L 70.282813 316.860937 
L 70.282813 308.460938 
L 46.282813 308.460938 
z
" style="fill:#ffff99;stroke:#000000;stroke-linejoin:miter;"/>
    </g>
    <g id="text_3">
     <!-- Oligo Assembly Station -->
     <defs>
      <path d="M 70.125 35.796875 
Q 70.125 18.796875 61.625 8.90625 
Q 53.125 -0.984375 38.1875 -0.984375 
Q 23.296875 -0.984375 14.796875 8.90625 
Q 6.296875 18.796875 6.296875 35.890625 
Q 6.296875 52.9375 14.859375 62.71875 
Q 23.4375 72.515625 38.28125 72.515625 
Q 53.21875 72.515625 61.671875 62.671875 
Q 70.125 52.828125 70.125 35.796875 
M 11.71875 35.796875 
Q 11.71875 20.453125 18.546875 12.078125 
Q 25.390625 3.71875 38.1875 3.71875 
Q 51.078125 3.71875 57.890625 12.015625 
Q 64.703125 20.3125 64.703125 35.796875 
Q 64.703125 51.21875 57.890625 59.4375 
Q 51.078125 67.671875 38.28125 67.671875 
Q 25.53125 67.671875 18.625 59.375 
Q 11.71875 51.078125 11.71875 35.796875 
" id="OpenSans-Light-4f"/>
      <path d="M 50.296875 53.078125 
L 50.296875 49.703125 
L 39.3125 49.03125 
Q 43.703125 43.5625 43.703125 37.015625 
Q 43.703125 29.34375 38.59375 24.578125 
Q 33.5 19.828125 24.90625 19.828125 
Q 21.296875 19.828125 19.828125 20.125 
Q 16.9375 18.609375 15.421875 16.546875 
Q 13.921875 14.5 13.921875 12.203125 
Q 13.921875 9.671875 15.84375 8.5 
Q 17.78125 7.328125 22.3125 7.328125 
L 31.59375 7.328125 
Q 40.234375 7.328125 44.828125 3.828125 
Q 49.421875 0.34375 49.421875 -6.5 
Q 49.421875 -14.890625 42.609375 -19.453125 
Q 35.796875 -24.03125 23.1875 -24.03125 
Q 13.1875 -24.03125 7.6875 -20.171875 
Q 2.203125 -16.3125 2.203125 -9.421875 
Q 2.203125 -3.953125 5.59375 -0.34375 
Q 8.984375 3.265625 14.796875 4.59375 
Q 12.40625 5.609375 10.953125 7.484375 
Q 9.515625 9.375 9.515625 11.8125 
Q 9.515625 17.140625 16.3125 21.1875 
Q 11.671875 23.09375 9.078125 27.171875 
Q 6.5 31.25 6.5 36.53125 
Q 6.5 44.484375 11.546875 49.296875 
Q 16.609375 54.109375 25.203125 54.109375 
Q 30.421875 54.109375 33.296875 53.078125 
z
M 7.328125 -8.984375 
Q 7.328125 -19.921875 23.578125 -19.921875 
Q 44.484375 -19.921875 44.484375 -6.59375 
Q 44.484375 -1.8125 41.203125 0.328125 
Q 37.9375 2.484375 30.609375 2.484375 
L 21.921875 2.484375 
Q 7.328125 2.484375 7.328125 -8.984375 
M 11.375 36.53125 
Q 11.375 30.375 15.109375 26.96875 
Q 18.84375 23.578125 25.09375 23.578125 
Q 31.734375 23.578125 35.265625 26.953125 
Q 38.8125 30.328125 38.8125 36.71875 
Q 38.8125 43.5 35.171875 46.890625 
Q 31.546875 50.296875 25 50.296875 
Q 18.65625 50.296875 15.015625 46.65625 
Q 11.375 43.015625 11.375 36.53125 
" id="OpenSans-Light-67"/>
      <path d="M 13.71875 0 
L 8.890625 0 
L 8.890625 53.078125 
L 13.71875 53.078125 
z
M 8.203125 67.828125 
Q 8.203125 72.515625 11.28125 72.515625 
Q 12.796875 72.515625 13.640625 71.28125 
Q 14.5 70.0625 14.5 67.828125 
Q 14.5 65.625 13.640625 64.359375 
Q 12.796875 63.09375 11.28125 63.09375 
Q 8.203125 63.09375 8.203125 67.828125 
" id="OpenSans-Light-69"/>
      <path d="M 49.515625 18.40625 
Q 49.515625 9.46875 42.9375 4.234375 
Q 36.375 -0.984375 25.484375 -0.984375 
Q 12.40625 -0.984375 5.421875 1.90625 
L 5.421875 6.890625 
Q 13.140625 3.609375 25.09375 3.609375 
Q 33.890625 3.609375 39.03125 7.640625 
Q 44.1875 11.671875 44.1875 18.21875 
Q 44.1875 22.265625 42.46875 24.921875 
Q 40.765625 27.59375 36.90625 29.78125 
Q 33.0625 31.984375 25.59375 34.515625 
Q 14.65625 38.28125 10.46875 42.640625 
Q 6.296875 47.015625 6.296875 54.296875 
Q 6.296875 62.3125 12.5625 67.359375 
Q 18.84375 72.40625 28.71875 72.40625 
Q 38.765625 72.40625 47.609375 68.609375 
L 45.796875 64.3125 
Q 36.921875 68.015625 28.8125 68.015625 
Q 20.90625 68.015625 16.21875 64.34375 
Q 11.53125 60.6875 11.53125 54.390625 
Q 11.53125 50.4375 12.96875 47.890625 
Q 14.40625 45.359375 17.671875 43.328125 
Q 20.953125 41.3125 28.90625 38.484375 
Q 37.25 35.59375 41.453125 32.875 
Q 45.65625 30.171875 47.578125 26.734375 
Q 49.515625 23.296875 49.515625 18.40625 
" id="OpenSans-Light-53"/>
     </defs>
     <g transform="translate(79.8828125 316.8609375)scale(0.12 -0.12)">
      <use xlink:href="#OpenSans-Light-4f"/>
      <use x="76.416015625" xlink:href="#OpenSans-Light-6c"/>
      <use x="99.0234375" xlink:href="#OpenSans-Light-69"/>
      <use x="121.630859375" xlink:href="#OpenSans-Light-67"/>
      <use x="173.92578125" xlink:href="#OpenSans-Light-6f"/>
      <use x="232.51953125" xlink:href="#OpenSans-Light-20"/>
      <use x="258.49609375" xlink:href="#OpenSans-Light-41"/>
      <use x="318.505859375" xlink:href="#OpenSans-Light-73"/>
      <use x="365.087890625" xlink:href="#OpenSans-Light-73"/>
      <use x="411.669921875" xlink:href="#OpenSans-Light-65"/>
      <use x="466.552734375" xlink:href="#OpenSans-Light-6d"/>
      <use x="554.833984375" xlink:href="#OpenSans-Light-62"/>
      <use x="614.35546875" xlink:href="#OpenSans-Light-6c"/>
      <use x="636.962890625" xlink:href="#OpenSans-Light-79"/>
      <use x="682.861328125" xlink:href="#OpenSans-Light-20"/>
      <use x="708.837890625" xlink:href="#OpenSans-Light-53"/>
      <use x="763.330078125" xlink:href="#OpenSans-Light-74"/>
      <use x="796.826171875" xlink:href="#OpenSans-Light-61"/>
      <use x="849.8046875" xlink:href="#OpenSans-Light-74"/>
      <use x="883.30078125" xlink:href="#OpenSans-Light-69"/>
      <use x="905.908203125" xlink:href="#OpenSans-Light-6f"/>
      <use x="964.501953125" xlink:href="#OpenSans-Light-6e"/>
     </g>
    </g>
    <g id="patch_135">
     <path d="M 263.400312 280.857188 
L 287.400312 280.857188 
L 287.400312 272.457188 
L 263.400312 272.457188 
z
" style="fill:#a6cee3;"/>
    </g>
    <g id="text_4">
     <!-- Oligo.com -->
     <g transform="translate(297.0003125 280.8571875)scale(0.12 -0.12)">
      <use xlink:href="#OpenSans-Light-4f"/>
      <use x="76.416015625" xlink:href="#OpenSans-Light-6c"/>
      <use x="99.0234375" xlink:href="#OpenSans-Light-69"/>
      <use x="121.630859375" xlink:href="#OpenSans-Light-67"/>
      <use x="173.92578125" xlink:href="#OpenSans-Light-6f"/>
      <use x="232.51953125" xlink:href="#OpenSans-Light-2e"/>
      <use x="256.298828125" xlink:href="#OpenSans-Light-63"/>
      <use x="303.80859375" xlink:href="#OpenSans-Light-6f"/>
      <use x="362.40234375" xlink:href="#OpenSans-Light-6d"/>
     </g>
    </g>
    <g id="patch_136">
     <path d="M 263.400312 298.859062 
L 287.400312 298.859062 
L 287.400312 290.459063 
L 263.400312 290.459063 
z
" style="fill:#dddddd;stroke:#000000;stroke-linejoin:miter;"/>
    </g>
    <g id="text_5">
     <!-- E. coli Genome (PCR) -->
     <defs>
      <path d="M 4 27.390625 
Q 4 40.328125 7.78125 51.609375 
Q 11.578125 62.890625 18.703125 71.390625 
L 24.21875 71.390625 
Q 17 62.5 13.140625 51.234375 
Q 9.28125 39.984375 9.28125 27.484375 
Q 9.28125 3.90625 24.125 -15.828125 
L 18.703125 -15.828125 
Q 11.53125 -7.515625 7.765625 3.5625 
Q 4 14.65625 4 27.390625 
" id="OpenSans-Light-28"/>
      <path d="M 23.1875 27.390625 
Q 23.1875 14.546875 19.40625 3.453125 
Q 15.625 -7.625 8.5 -15.828125 
L 3.078125 -15.828125 
Q 17.921875 3.90625 17.921875 27.484375 
Q 17.921875 40.046875 14.0625 51.296875 
Q 10.203125 62.546875 2.984375 71.390625 
L 8.5 71.390625 
Q 15.671875 62.84375 19.421875 51.53125 
Q 23.1875 40.234375 23.1875 27.390625 
" id="OpenSans-Light-29"/>
      <path d="M 49.125 0 
L 10.109375 0 
L 10.109375 71.390625 
L 49.125 71.390625 
L 49.125 66.796875 
L 15.09375 66.796875 
L 15.09375 39.796875 
L 47.21875 39.796875 
L 47.21875 35.203125 
L 15.09375 35.203125 
L 15.09375 4.59375 
L 49.125 4.59375 
z
" id="OpenSans-Light-45"/>
      <path d="M 53.078125 50.875 
Q 53.078125 40.53125 46.046875 35.015625 
Q 39.015625 29.5 26.125 29.5 
L 15.09375 29.5 
L 15.09375 0 
L 10.109375 0 
L 10.109375 71.390625 
L 27.59375 71.390625 
Q 53.078125 71.390625 53.078125 50.875 
M 15.09375 33.796875 
L 24.90625 33.796875 
Q 36.96875 33.796875 42.328125 37.765625 
Q 47.703125 41.75 47.703125 50.6875 
Q 47.703125 58.9375 42.625 62.90625 
Q 37.546875 66.890625 26.90625 66.890625 
L 15.09375 66.890625 
z
" id="OpenSans-Light-50"/>
      <path d="M 15.09375 31.109375 
L 15.09375 0 
L 10.109375 0 
L 10.109375 71.390625 
L 27.09375 71.390625 
Q 40.375 71.390625 46.71875 66.484375 
Q 53.078125 61.578125 53.078125 51.703125 
Q 53.078125 44.53125 49.296875 39.59375 
Q 45.515625 34.671875 37.796875 32.515625 
L 57.171875 0 
L 51.21875 0 
L 32.8125 31.109375 
z
M 15.09375 35.40625 
L 28.71875 35.40625 
Q 37.75 35.40625 42.71875 39.421875 
Q 47.703125 43.453125 47.703125 51.3125 
Q 47.703125 59.46875 42.8125 63.171875 
Q 37.9375 66.890625 26.90625 66.890625 
L 15.09375 66.890625 
z
" id="OpenSans-Light-52"/>
     </defs>
     <g transform="translate(297.0003125 298.8590625)scale(0.12 -0.12)">
      <use xlink:href="#OpenSans-Light-45"/>
      <use x="55.17578125" xlink:href="#OpenSans-Light-2e"/>
      <use x="78.955078125" xlink:href="#OpenSans-Light-20"/>
      <use x="104.931640625" xlink:href="#OpenSans-Light-63"/>
      <use x="152.44140625" xlink:href="#OpenSans-Light-6f"/>
      <use x="211.03515625" xlink:href="#OpenSans-Light-6c"/>
      <use x="233.642578125" xlink:href="#OpenSans-Light-69"/>
      <use x="256.25" xlink:href="#OpenSans-Light-20"/>
      <use x="282.2265625" xlink:href="#OpenSans-Light-47"/>
      <use x="354.541015625" xlink:href="#OpenSans-Light-65"/>
      <use x="409.423828125" xlink:href="#OpenSans-Light-6e"/>
      <use x="468.408203125" xlink:href="#OpenSans-Light-6f"/>
      <use x="527.001953125" xlink:href="#OpenSans-Light-6d"/>
      <use x="615.283203125" xlink:href="#OpenSans-Light-65"/>
      <use x="670.166015625" xlink:href="#OpenSans-Light-20"/>
      <use x="696.142578125" xlink:href="#OpenSans-Light-28"/>
      <use x="723.33984375" xlink:href="#OpenSans-Light-50"/>
      <use x="781.8359375" xlink:href="#OpenSans-Light-43"/>
      <use x="843.9453125" xlink:href="#OpenSans-Light-52"/>
      <use x="903.369140625" xlink:href="#OpenSans-Light-29"/>
     </g>
    </g>
    <g id="patch_137">
     <path d="M 263.400312 316.860937 
L 287.400312 316.860937 
L 287.400312 308.460938 
L 263.400312 308.460938 
z
" style="fill:#fb9a99;stroke:#000000;stroke-linejoin:miter;"/>
    </g>
    <g id="text_6">
     <!-- Gibson Blocks Assembly -->
     <g transform="translate(297.0003125 316.8609375)scale(0.12 -0.12)">
      <use xlink:href="#OpenSans-Light-47"/>
      <use x="72.314453125" xlink:href="#OpenSans-Light-69"/>
      <use x="94.921875" xlink:href="#OpenSans-Light-62"/>
      <use x="154.443359375" xlink:href="#OpenSans-Light-73"/>
      <use x="201.025390625" xlink:href="#OpenSans-Light-6f"/>
      <use x="259.619140625" xlink:href="#OpenSans-Light-6e"/>
      <use x="318.603515625" xlink:href="#OpenSans-Light-20"/>
      <use x="344.580078125" xlink:href="#OpenSans-Light-42"/>
      <use x="407.275390625" xlink:href="#OpenSans-Light-6c"/>
      <use x="429.8828125" xlink:href="#OpenSans-Light-6f"/>
      <use x="488.4765625" xlink:href="#OpenSans-Light-63"/>
      <use x="535.986328125" xlink:href="#OpenSans-Light-6b"/>
      <use x="584.375" xlink:href="#OpenSans-Light-73"/>
      <use x="630.95703125" xlink:href="#OpenSans-Light-20"/>
      <use x="656.93359375" xlink:href="#OpenSans-Light-41"/>
      <use x="716.943359375" xlink:href="#OpenSans-Light-73"/>
      <use x="763.525390625" xlink:href="#OpenSans-Light-73"/>
      <use x="810.107421875" xlink:href="#OpenSans-Light-65"/>
      <use x="864.990234375" xlink:href="#OpenSans-Light-6d"/>
      <use x="953.271484375" xlink:href="#OpenSans-Light-62"/>
      <use x="1012.79296875" xlink:href="#OpenSans-Light-6c"/>
      <use x="1035.40039062" xlink:href="#OpenSans-Light-79"/>
     </g>
    </g>
   </g>
  </g>
 </g>
 <defs>
  <clipPath id="p7446f39010">
   <rect height="248.9" width="454.1" x="35.4828125" y="12.0390625"/>
  </clipPath>
 </defs>
</svg>
