<?xml version="1.0" encoding="UTF-8" standalone="no"?>
<!-- Created with Inkscape (http://www.inkscape.org/) -->

<svg
   xmlns:dc="http://purl.org/dc/elements/1.1/"
   xmlns:cc="http://creativecommons.org/ns#"
   xmlns:rdf="http://www.w3.org/1999/02/22-rdf-syntax-ns#"
   xmlns:svg="http://www.w3.org/2000/svg"
   xmlns="http://www.w3.org/2000/svg"
   xmlns:sodipodi="http://sodipodi.sourceforge.net/DTD/sodipodi-0.dtd"
   xmlns:inkscape="http://www.inkscape.org/namespaces/inkscape"
   width="148.06416mm"
   height="44.95092mm"
   viewBox="0 0 524.63682 159.27491"
   id="svg4535"
   version="1.1"
   inkscape:version="0.91 r"
   sodipodi:docname="dna_weaver_logo.svg">
  <defs
     id="defs4537" />
  <sodipodi:namedview
     id="base"
     pagecolor="#ffffff"
     bordercolor="#666666"
     borderopacity="1.0"
     inkscape:pageopacity="0.0"
     inkscape:pageshadow="2"
     inkscape:zoom="0.7"
     inkscape:cx="692.31114"
     inkscape:cy="104.41716"
     inkscape:document-units="px"
     inkscape:current-layer="layer1"
     showgrid="false"
     fit-margin-top="0.2"
     fit-margin-left="0.2"
     fit-margin-right="0.2"
     fit-margin-bottom="0.2"
     inkscape:window-width="2495"
     inkscape:window-height="1416"
     inkscape:window-x="65"
     inkscape:window-y="24"
     inkscape:window-maximized="1"
     showborder="true" />
  <metadata
     id="metadata4540">
    <rdf:RDF>
      <cc:Work
         rdf:about="">
        <dc:format>image/svg+xml</dc:format>
        <dc:type
           rdf:resource="http://purl.org/dc/dcmitype/StillImage" />
        <dc:title />
      </cc:Work>
    </rdf:RDF>
  </metadata>
  <g
     inkscape:label="Layer 1"
     inkscape:groupmode="layer"
     id="layer1"
     transform="translate(385.82463,-8.9137079)">
    <g
       style="font-style:normal;font-variant:normal;font-weight:normal;font-stretch:normal;font-size:133.24160767px;line-height:116.99999571%;font-family:'Open Sans';-inkscape-font-specification:'Open Sans';text-align:center;letter-spacing:31.07006454px;word-spacing:0px;text-anchor:middle;fill:#000000;fill-opacity:1;stroke:none;stroke-width:1px;stroke-linecap:butt;stroke-linejoin:miter;stroke-opacity:1"
       id="text71440-5-0-1-0"
       transform="matrix(0.48499985,0,0,0.48499985,-204.3957,4.9555214)">
      <path
         d="m 177.06881,142.04971 0,-94.601538 32.11123,0 q 11.32554,0 19.71976,3.730765 8.52746,3.730765 14.12361,10.126362 5.72939,6.395597 8.52746,15.056302 2.93132,8.527462 2.93132,18.2541 0,10.792569 -3.1978,19.586519 -3.1978,8.6607 -9.19367,14.92306 -5.86263,6.12911 -14.25686,9.59339 -8.26097,3.33104 -18.65382,3.33104 l -32.11123,0 z m 68.08646,-47.434009 q 0,-8.527463 -2.39835,-15.589268 -2.39834,-7.195047 -7.0618,-12.39147 -4.53021,-5.196423 -11.1923,-7.994496 -6.66208,-2.931316 -15.32278,-2.931316 l -22.78432,0 0,78.079579 22.78432,0 q 8.79395,0 15.45603,-2.93131 6.79532,-3.06456 11.32553,-8.26098 4.53022,-5.32967 6.79532,-12.39147 2.39835,-7.19505 2.39835,-15.589269 z"
         style="font-style:normal;font-variant:normal;font-weight:normal;font-stretch:normal;line-height:116.99999571%;font-family:Raleway;-inkscape-font-specification:Raleway;text-align:center;letter-spacing:31.07006454px;text-anchor:middle"
         id="path5156"
         inkscape:connector-curvature="0" />
      <path
         d="m 312.71273,64.769581 0,77.280129 -9.32692,0 0,-94.601538 7.19505,0 62.62356,78.745788 0,-78.612547 9.32691,0 0,94.468297 -8.12774,0 -61.69086,-77.280129 z"
         style="font-style:normal;font-variant:normal;font-weight:normal;font-stretch:normal;line-height:116.99999571%;font-family:Raleway;-inkscape-font-specification:Raleway;text-align:center;letter-spacing:31.07006454px;text-anchor:middle"
         id="path5158"
         inkscape:connector-curvature="0" />
      <path
         d="m 466.56284,47.448172 7.86126,0 39.30627,94.601538 -9.85988,0 -12.25822,-29.57963 -42.50408,0 -12.12498,29.57963 -9.99312,0 39.57275,-94.601538 z m 22.91756,57.693618 -19.05355,-46.767806 -19.32003,46.767806 38.37358,0 z"
         style="font-style:normal;font-variant:normal;font-weight:normal;font-stretch:normal;line-height:116.99999571%;font-family:Raleway;-inkscape-font-specification:Raleway;text-align:center;letter-spacing:31.07006454px;text-anchor:middle"
         id="path5160"
         inkscape:connector-curvature="0" />
      <path
         d="m 29.414529,204.00705 8.793947,0 13.32416,33.57689 13.457403,-33.57689 8.927187,0 -16.521959,40.37221 18.120859,42.77056 34.243094,-83.80897 10.12636,0 -40.105723,94.60154 -8.26098,0 -19.852999,-46.76781 -19.986241,46.76781 -8.127738,0 -39.972483,-94.60154 9.993121,0 34.376335,83.80897 17.987617,-42.77056 -16.52196,-40.37221 z"
         style="font-style:normal;font-variant:normal;font-weight:normal;font-stretch:normal;line-height:116.99999571%;font-family:Raleway;-inkscape-font-specification:Raleway;text-align:center;letter-spacing:31.07006454px;text-anchor:middle"
         id="path5162"
         inkscape:connector-curvature="0" />
      <path
         d="m 227.95264,289.68141 0,8.26098 -63.55625,0 0,-94.60154 62.35708,0 0,8.26098 -53.03016,0 0,34.10985 46.23483,0 0,7.86125 -46.23483,0 0,36.10848 54.22933,0 z"
         style="font-style:normal;font-variant:normal;font-weight:normal;font-stretch:normal;line-height:116.99999571%;font-family:Raleway;-inkscape-font-specification:Raleway;text-align:center;letter-spacing:31.07006454px;text-anchor:middle"
         id="path5164"
         inkscape:connector-curvature="0" />
      <path
         d="m 305.97371,203.34085 7.86125,0 39.30628,94.60154 -9.85988,0 -12.25823,-29.57964 -42.50407,0 -12.12499,29.57964 -9.99312,0 39.57276,-94.60154 z m 22.91755,57.69361 -19.05355,-46.7678 -19.32003,46.7678 38.37358,0 z"
         style="font-style:normal;font-variant:normal;font-weight:normal;font-stretch:normal;line-height:116.99999571%;font-family:Raleway;-inkscape-font-specification:Raleway;text-align:center;letter-spacing:31.07006454px;text-anchor:middle"
         id="path5166"
         inkscape:connector-curvature="0" />
      <path
         d="m 389.30572,203.34085 33.84337,83.00952 33.71013,-83.00952 9.72663,0 -39.43951,94.60154 -8.12774,0 -39.43952,-94.60154 9.72664,0 z"
         style="font-style:normal;font-variant:normal;font-weight:normal;font-stretch:normal;line-height:116.99999571%;font-family:Raleway;-inkscape-font-specification:Raleway;text-align:center;letter-spacing:31.07006454px;text-anchor:middle"
         id="path5168"
         inkscape:connector-curvature="0" />
      <path
         d="m 574.89441,289.68141 0,8.26098 -63.55624,0 0,-94.60154 62.35707,0 0,8.26098 -53.03016,0 0,34.10985 46.23484,0 0,7.86125 -46.23484,0 0,36.10848 54.22933,0 z"
         style="font-style:normal;font-variant:normal;font-weight:normal;font-stretch:normal;line-height:116.99999571%;font-family:Raleway;-inkscape-font-specification:Raleway;text-align:center;letter-spacing:31.07006454px;text-anchor:middle"
         id="path5170"
         inkscape:connector-curvature="0" />
      <path
         d="m 623.60233,297.94239 0,-94.60154 39.97248,0 q 6.12911,0 11.19229,2.66483 5.19643,2.53159 8.92719,6.79532 3.73077,4.13049 5.72939,9.46016 2.13187,5.32966 2.13187,10.79257 0,5.19642 -1.5989,9.99312 -1.46566,4.66345 -4.26373,8.52746 -2.66484,3.73076 -6.52884,6.3956 -3.86401,2.53159 -8.66071,3.46428 l 23.18404,36.5082 -10.52609,0 -22.25134,-34.9093 -27.98074,0 0,34.9093 -9.32691,0 z m 9.32691,-43.17028 30.91205,0 q 4.13049,0 7.46153,-1.73214 3.46428,-1.86539 5.86263,-4.92994 2.39835,-3.06456 3.73077,-6.92857 1.33241,-3.864 1.33241,-8.12773 0,-4.26374 -1.5989,-8.12774 -1.46565,-3.99725 -4.13049,-6.92857 -2.53159,-2.93131 -6.12911,-4.66345 -3.46428,-1.73214 -7.32829,-1.73214 l -30.1126,0 0,43.17028 z"
         style="font-style:normal;font-variant:normal;font-weight:normal;font-stretch:normal;line-height:116.99999571%;font-family:Raleway;-inkscape-font-specification:Raleway;text-align:center;letter-spacing:31.07006454px;text-anchor:middle"
         id="path5172"
         inkscape:connector-curvature="0" />
    </g>
    <g
       id="g6564"
       transform="matrix(0.52902882,0.01025502,-0.05573698,0.52701975,2355.4983,-312.00776)"
       inkscape:export-xdpi="9.0601997"
       inkscape:export-ydpi="9.0601997">
      <g
         id="g5558"
         transform="matrix(1.0005216,-1.0150229e-5,0.02680752,0.99947837,-20.322345,0.39544261)">
        <path
           style="fill:#1883c7;fill-opacity:1;fill-rule:evenodd;stroke:none;stroke-width:1px;stroke-linecap:butt;stroke-linejoin:miter;stroke-opacity:1"
           d="m -4907.8011,836.29371 -19.1243,-17.47127 10.8388,104.73196 19.3463,17.22446 z"
           id="path70532-2-2-7-6-59-9-6-2-9-1-2-6-8-9-6"
           inkscape:connector-curvature="0" />
        <path
           style="fill:#1883c7;fill-opacity:1;fill-rule:evenodd;stroke:none;stroke-width:1px;stroke-linecap:butt;stroke-linejoin:miter;stroke-opacity:1"
           d="m -4850.7595,888.33539 -19.1243,-17.47139 10.8388,104.73216 19.3465,17.22427 z"
           id="path70532-2-0-5-4-6-4-35-1-0-0-1-2-1-5-9-0"
           inkscape:connector-curvature="0" />
        <path
           style="fill:#116999;fill-opacity:1;fill-rule:evenodd;stroke:none;stroke-width:1px;stroke-linecap:butt;stroke-linejoin:miter;stroke-opacity:1"
           d="m -4810.2821,938.22266 -1.7509,-15.3323 -87.2808,0.49132 2.7196,16.63911 z"
           id="path70534-4-2-0-8-1-8-2-1-19-3-9-2-7-6-5"
           inkscape:connector-curvature="0" />
        <path
           style="fill:#1883c7;fill-opacity:1;fill-rule:evenodd;stroke:none;stroke-width:1px;stroke-linecap:butt;stroke-linejoin:miter;stroke-opacity:1"
           d="m -5022.5497,733.09525 -19.1242,-17.47119 10.8387,104.73196 19.979,16.37197 z"
           id="path70532-2-2-7-6-5-0-5-3-7-4-0-6-7-2-5-6"
           inkscape:connector-curvature="0"
           sodipodi:nodetypes="ccccc" />
        <path
           style="fill:#116999;fill-opacity:1;fill-rule:evenodd;stroke:none;stroke-width:1px;stroke-linecap:butt;stroke-linejoin:miter;stroke-opacity:1"
           d="m -4982.6257,782.85801 -1.6754,-14.82083 -104.3514,0.39967 19.195,16.20089 z"
           id="path70530-9-6-1-6-7-2-8-7-6-14-6-9-0-1-9-9"
           inkscape:connector-curvature="0" />
        <path
           style="fill:#1883c7;fill-opacity:1;fill-rule:evenodd;stroke:none;stroke-width:1px;stroke-linecap:butt;stroke-linejoin:miter;stroke-opacity:1"
           d="m -4965.5082,785.13674 -19.124,-17.4712 10.9444,103.7272 19.6924,16.54251 z"
           id="path70532-2-0-5-4-6-8-2-9-2-5-9-0-9-1-2-4-9"
           inkscape:connector-curvature="0"
           sodipodi:nodetypes="ccccc" />
        <path
           style="fill:#1883c7;fill-opacity:1;fill-rule:evenodd;stroke:none;stroke-width:1px;stroke-linecap:butt;stroke-linejoin:miter;stroke-opacity:1"
           d="m -5017.6286,783.40667 -19.1859,-14.80093 5.0531,51.28599 20.76,16.69246 z"
           id="path70532-2-2-7-6-5-0-5-3-7-4-0-6-0-00-7-6-2"
           inkscape:connector-curvature="0"
           sodipodi:nodetypes="ccccc" />
        <path
           style="fill:#116999;fill-opacity:1;fill-rule:evenodd;stroke:none;stroke-width:1px;stroke-linecap:butt;stroke-linejoin:miter;stroke-opacity:1"
           d="m -4925.0308,835.0242 -1.751,-15.33267 -105.5628,0.10227 21.0016,17.02846 z"
           id="path70534-4-2-0-8-9-7-09-6-02-5-0-9-5-9-7-4"
           inkscape:connector-curvature="0"
           sodipodi:nodetypes="ccccc" />
        <path
           style="fill:#1883c7;fill-opacity:1;fill-rule:evenodd;stroke:none;stroke-width:1px;stroke-linecap:butt;stroke-linejoin:miter;stroke-opacity:1"
           d="m -4959.792,835.10635 -19.1857,-14.80085 5.0527,51.28591 20.76,16.69246 z"
           id="path70532-2-2-7-6-5-0-5-3-7-4-0-6-0-0-4-0-0-6"
           inkscape:connector-curvature="0"
           sodipodi:nodetypes="ccccc" />
        <path
           style="fill:#116999;fill-opacity:1;fill-rule:evenodd;stroke:none;stroke-width:1px;stroke-linecap:butt;stroke-linejoin:miter;stroke-opacity:1"
           d="m -4867.8772,886.05648 -1.6752,-14.82076 -104.3516,0.39969 19.195,16.20071 z"
           id="path70530-9-6-1-6-2-1-5-99-7-2-7-9-7-94-6"
           inkscape:connector-curvature="0" />
        <path
           style="fill:#1883c7;fill-opacity:1;fill-rule:evenodd;stroke:none;stroke-width:1px;stroke-linecap:butt;stroke-linejoin:miter;stroke-opacity:1"
           d="m -4902.1385,887.36241 -19.1857,-14.80094 5.0529,51.28591 20.7599,16.69246 z"
           id="path70532-2-2-7-6-5-0-5-3-7-4-0-6-0-0-3-9-5-0-0"
           inkscape:connector-curvature="0"
           sodipodi:nodetypes="ccccc" />
        <path
           sodipodi:nodetypes="ccccc"
           style="fill:#116999;fill-opacity:1;fill-rule:evenodd;stroke:none;stroke-width:1px;stroke-linecap:butt;stroke-linejoin:miter;stroke-opacity:1"
           d="m -4792.5429,938.37449 -19.0883,-15.3753 -104.4795,1.29556 19.1948,16.20079 z"
           id="path70530-9-6-1-6-2-1-5-99-7-2-7-0-4-3-0-4"
           inkscape:connector-curvature="0" />
        <path
           style="fill:#1883c7;fill-opacity:1;fill-rule:evenodd;stroke:none;stroke-width:1px;stroke-linecap:butt;stroke-linejoin:miter;stroke-opacity:1"
           d="m -4845.9936,939.21096 -19.1858,-14.80094 5.053,51.28592 20.7599,16.69255 z"
           id="path70532-2-2-7-6-5-0-5-3-7-4-0-6-0-0-3-2-28-1-38-4"
           inkscape:connector-curvature="0"
           sodipodi:nodetypes="ccccc" />
        <g
           transform="matrix(0.87106197,-0.03302915,-0.18960112,-0.82239364,-1018.2591,1134.0724)"
           id="g5504-7-6-3">
          <path
             inkscape:connector-curvature="0"
             id="path70534-4-2-7-7-4-9-9-7-3-3-6-7-4-1"
             d="m -4246.5149,547.29069 2.2935,16.1056 -91.7682,2.1318 -1.6287,-17.5029 z"
             style="fill:#116999;fill-opacity:1;fill-rule:evenodd;stroke:none;stroke-width:1px;stroke-linecap:butt;stroke-linejoin:miter;stroke-opacity:1" />
          <path
             inkscape:connector-curvature="0"
             id="path70532-2-0-5-7-5-3-0-8-50-0-6-0-9-3-5"
             d="m -4275.5684,600.74809 -15.3704,18.8714 -16.8436,-109.9792 15.67,-18.6198 z"
             style="fill:#1883c7;fill-opacity:1;fill-rule:evenodd;stroke:none;stroke-width:1px;stroke-linecap:butt;stroke-linejoin:miter;stroke-opacity:1" />
          <path
             inkscape:connector-curvature="0"
             id="path70532-2-2-0-6-4-09-3-8-5-6-9-7-9-69"
             d="m -4321.4321,656.96319 -15.3706,18.8715 -16.8435,-109.9792 15.6701,-18.6197 z"
             style="fill:#1883c7;fill-opacity:1;fill-rule:evenodd;stroke:none;stroke-width:1px;stroke-linecap:butt;stroke-linejoin:miter;stroke-opacity:1" />
          <path
             inkscape:connector-curvature="0"
             id="path70530-9-6-9-2-6-6-2-3-7-5-5-3-4-87"
             d="m -4292.9261,603.65309 2.2351,15.5675 -109.6659,2.7457 15.7869,-17.5438 z"
             style="fill:#116999;fill-opacity:1;fill-rule:evenodd;stroke:none;stroke-width:1px;stroke-linecap:butt;stroke-linejoin:miter;stroke-opacity:1" />
          <path
             sodipodi:nodetypes="ccccc"
             inkscape:connector-curvature="0"
             id="path70532-2-2-7-6-5-0-5-3-7-4-0-6-0-5-6-1-0-7"
             d="m -4329.1206,604.35139 -17.0004,16.6566 -6.8505,-55.1503 15.1986,-18.0022 z"
             style="fill:#1883c7;fill-opacity:1;fill-rule:evenodd;stroke:none;stroke-width:1px;stroke-linecap:butt;stroke-linejoin:miter;stroke-opacity:1" />
          <path
             sodipodi:nodetypes="ccccc"
             inkscape:connector-curvature="0"
             id="path70534-4-2-0-8-9-7-09-6-02-5-0-9-4-8-3-0-9"
             d="m -4245.2528,546.17879 1.7908,16.4979 -109.7419,3.3021 15.1237,-18.1206 z"
             style="fill:#116999;fill-opacity:1;fill-rule:evenodd;stroke:none;stroke-width:1px;stroke-linecap:butt;stroke-linejoin:miter;stroke-opacity:1" />
          <path
             sodipodi:nodetypes="ccccc"
             inkscape:connector-curvature="0"
             id="path70532-2-2-7-6-5-0-5-3-7-4-0-6-0-5-5-4-0-9-1"
             d="m -4283.1203,547.73959 -17.0004,16.6567 -6.8505,-55.1504 15.1986,-18.0022 z"
             style="fill:#1883c7;fill-opacity:1;fill-rule:evenodd;stroke:none;stroke-width:1px;stroke-linecap:butt;stroke-linejoin:miter;stroke-opacity:1" />
        </g>
        <g
           transform="matrix(-0.87120573,0.03303461,0.18963241,0.82252946,-8864.4176,574.70102)"
           id="g5504-7-6-2-7">
          <path
             inkscape:connector-curvature="0"
             id="path70534-4-2-7-7-4-9-9-7-3-3-6-7-4-4-7"
             d="m -4246.5149,547.29069 2.2935,16.1056 -91.7682,2.1318 -1.6287,-17.5029 z"
             style="fill:#116999;fill-opacity:1;fill-rule:evenodd;stroke:none;stroke-width:1px;stroke-linecap:butt;stroke-linejoin:miter;stroke-opacity:1" />
          <path
             sodipodi:nodetypes="ccccc"
             inkscape:connector-curvature="0"
             id="path70532-2-0-5-7-5-3-0-8-50-0-6-0-9-3-8-9"
             d="m -4275.5684,600.74809 -15.3704,18.8714 -13.1796,-111.26696 12.006,-17.33204 z"
             style="fill:#1883c7;fill-opacity:1;fill-rule:evenodd;stroke:none;stroke-width:1px;stroke-linecap:butt;stroke-linejoin:miter;stroke-opacity:1" />
          <path
             inkscape:connector-curvature="0"
             id="path70532-2-2-0-6-4-09-3-8-5-6-9-7-9-6-0"
             d="m -4321.4321,656.96319 -15.3706,18.8715 -16.8435,-109.9792 15.6701,-18.6197 z"
             style="fill:#1883c7;fill-opacity:1;fill-rule:evenodd;stroke:none;stroke-width:1px;stroke-linecap:butt;stroke-linejoin:miter;stroke-opacity:1" />
          <path
             inkscape:connector-curvature="0"
             id="path70530-9-6-9-2-6-6-2-3-7-5-5-3-4-8-7"
             d="m -4292.9261,603.65309 2.2351,15.5675 -109.6659,2.7457 15.7869,-17.5438 z"
             style="fill:#116999;fill-opacity:1;fill-rule:evenodd;stroke:none;stroke-width:1px;stroke-linecap:butt;stroke-linejoin:miter;stroke-opacity:1" />
          <path
             sodipodi:nodetypes="ccccc"
             inkscape:connector-curvature="0"
             id="path70532-2-2-7-6-5-0-5-3-7-4-0-6-0-5-6-1-0-48-2"
             d="m -4320.9273,660.19748 -17.0004,16.6566 -6.8505,-55.1503 15.1986,-18.0022 z"
             style="fill:#1883c7;fill-opacity:1;fill-rule:evenodd;stroke:none;stroke-width:1px;stroke-linecap:butt;stroke-linejoin:miter;stroke-opacity:1" />
          <path
             sodipodi:nodetypes="ccccc"
             inkscape:connector-curvature="0"
             id="path70534-4-2-0-8-9-7-09-6-02-5-0-9-4-8-3-0-0-4"
             d="m -4235.7991,546.53541 -8.2814,16.82912 -109.6842,2.43403 15.6845,-17.94037 z"
             style="fill:#116999;fill-opacity:1;fill-rule:evenodd;stroke:none;stroke-width:1px;stroke-linecap:butt;stroke-linejoin:miter;stroke-opacity:1" />
          <path
             sodipodi:nodetypes="ccccc"
             inkscape:connector-curvature="0"
             id="path70532-2-2-7-6-5-0-5-3-7-4-0-6-0-5-5-4-0-9-9-40"
             d="m -4275.3744,600.5716 -15.2554,18.51497 -6.4855,-54.21138 13.4934,-17.63111 z"
             style="fill:#1883c7;fill-opacity:1;fill-rule:evenodd;stroke:none;stroke-width:1px;stroke-linecap:butt;stroke-linejoin:miter;stroke-opacity:1" />
        </g>
      </g>
    </g>
  </g>
</svg>
