<?xml version="1.0" encoding="utf-8" standalone="no"?>
<!DOCTYPE svg PUBLIC "-//W3C//DTD SVG 1.1//EN"
  "http://www.w3.org/Graphics/SVG/1.1/DTD/svg11.dtd">
<!-- Created with matplotlib (http://matplotlib.org/) -->
<svg height="367pt" version="1.1" viewBox="0 0 879 367" width="879pt" xmlns="http://www.w3.org/2000/svg" xmlns:xlink="http://www.w3.org/1999/xlink">
 <defs>
  <style type="text/css">
*{stroke-linecap:butt;stroke-linejoin:round;stroke-miterlimit:100000;}
  </style>
 </defs>
 <g id="figure_1">
  <g id="patch_1">
   <path d="M 0 367.717188 
L 879.254687 367.717188 
L 879.254687 0 
L 0 0 
z
" style="fill:#ffffff;"/>
  </g>
  <g id="axes_1">
   <g id="patch_2">
    <path clip-path="url(#p73e61ca5a1)" d="M 637.515268 179.439063 
C 722.530554 179.439063 646.961411 179.439063 731.976696 179.439063 
" style="fill:none;stroke:#000000;stroke-linejoin:miter;"/>
   </g>
   <g id="patch_3">
    <path clip-path="url(#p73e61ca5a1)" d="M 517.943839 263.139063 
C 602.959125 263.139063 527.389982 179.439063 612.405268 179.439063 
" style="fill:none;stroke:#000000;stroke-linejoin:miter;"/>
   </g>
   <g id="patch_4">
    <path clip-path="url(#p73e61ca5a1)" d="M 517.943839 179.439063 
C 602.959125 179.439063 527.389982 179.439063 612.405268 179.439063 
" style="fill:none;stroke:#000000;stroke-linejoin:miter;"/>
   </g>
   <g id="patch_5">
    <path clip-path="url(#p73e61ca5a1)" d="M 398.372411 179.439063 
C 483.387696 179.439063 407.818554 179.439063 492.833839 179.439063 
" style="fill:none;stroke:#000000;stroke-linejoin:miter;"/>
   </g>
   <g id="patch_6">
    <path clip-path="url(#p73e61ca5a1)" d="M 278.800982 263.139063 
C 363.816268 263.139063 288.247125 179.439063 373.262411 179.439063 
" style="fill:none;stroke:#000000;stroke-linejoin:miter;"/>
   </g>
   <g id="patch_7">
    <path clip-path="url(#p73e61ca5a1)" d="M 159.229554 179.439063 
C 244.244839 179.439063 168.675696 263.139063 253.690982 263.139063 
" style="fill:none;stroke:#000000;stroke-linejoin:miter;"/>
   </g>
   <g id="patch_8">
    <path clip-path="url(#p73e61ca5a1)" d="M 278.800982 179.439063 
C 363.816268 179.439063 288.247125 179.439063 373.262411 179.439063 
" style="fill:none;stroke:#000000;stroke-linejoin:miter;"/>
   </g>
   <g id="patch_9">
    <path clip-path="url(#p73e61ca5a1)" d="M 278.800982 95.739062 
C 363.816268 95.739062 288.247125 179.439063 373.262411 179.439063 
" style="fill:none;stroke:#000000;stroke-linejoin:miter;"/>
   </g>
   <g id="patch_10">
    <path clip-path="url(#p73e61ca5a1)" d="M 517.943839 95.739062 
C 602.959125 95.739062 527.389982 179.439063 612.405268 179.439063 
" style="fill:none;stroke:#000000;stroke-linejoin:miter;"/>
   </g>
   <g id="patch_11">
    <path clip-path="url(#p73e61ca5a1)" d="M 398.372411 179.439063 
C 483.387696 179.439063 407.818554 95.739062 492.833839 95.739062 
" style="fill:none;stroke:#000000;stroke-linejoin:miter;"/>
   </g>
   <g id="text_1">
    <!--  -->
    <defs>
     <path d="M 25 85.71875 
Q 26.453125 85.71875 27.515625 84.65625 
Q 28.578125 83.59375 28.578125 82.140625 
L 28.578125 32.421875 
L 58.484375 56.359375 
Q 59.4375 57.140625 60.71875 57.140625 
Q 62.171875 57.140625 63.21875 56.078125 
Q 64.28125 55.015625 64.28125 53.578125 
L 64.28125 32.421875 
L 94.203125 56.359375 
Q 95.140625 57.140625 96.421875 57.140625 
Q 97.875 57.140625 98.9375 56.078125 
Q 100 55.015625 100 53.578125 
L 100 -10.71875 
Q 100 -12.171875 98.9375 -13.21875 
Q 97.875 -14.28125 96.421875 -14.28125 
L 3.578125 -14.28125 
Q 2.125 -14.28125 1.0625 -13.21875 
Q 0 -12.171875 0 -10.71875 
L 0 82.140625 
Q 0 83.59375 1.0625 84.65625 
Q 2.125 85.71875 3.578125 85.71875 
z
" id="FontAwesome-f275"/>
    </defs>
    <g transform="translate(137.674553571 185.8684375)scale(0.18 -0.18)">
     <use xlink:href="#FontAwesome-f275"/>
    </g>
   </g>
   <g id="text_2">
    <!-- Oligo.com -->
    <defs>
     <path d="M 39.40625 66.21875 
Q 28.65625 66.21875 22.328125 58.203125 
Q 16.015625 50.203125 16.015625 36.375 
Q 16.015625 22.609375 22.328125 14.59375 
Q 28.65625 6.59375 39.40625 6.59375 
Q 50.140625 6.59375 56.421875 14.59375 
Q 62.703125 22.609375 62.703125 36.375 
Q 62.703125 50.203125 56.421875 58.203125 
Q 50.140625 66.21875 39.40625 66.21875 
M 39.40625 74.21875 
Q 54.734375 74.21875 63.90625 63.9375 
Q 73.09375 53.65625 73.09375 36.375 
Q 73.09375 19.140625 63.90625 8.859375 
Q 54.734375 -1.421875 39.40625 -1.421875 
Q 24.03125 -1.421875 14.8125 8.828125 
Q 5.609375 19.09375 5.609375 36.375 
Q 5.609375 53.65625 14.8125 63.9375 
Q 24.03125 74.21875 39.40625 74.21875 
" id="BitstreamVeraSans-Roman-4f"/>
     <path d="M 52 44.1875 
Q 55.375 50.25 60.0625 53.125 
Q 64.75 56 71.09375 56 
Q 79.640625 56 84.28125 50.015625 
Q 88.921875 44.046875 88.921875 33.015625 
L 88.921875 0 
L 79.890625 0 
L 79.890625 32.71875 
Q 79.890625 40.578125 77.09375 44.375 
Q 74.3125 48.1875 68.609375 48.1875 
Q 61.625 48.1875 57.5625 43.546875 
Q 53.515625 38.921875 53.515625 30.90625 
L 53.515625 0 
L 44.484375 0 
L 44.484375 32.71875 
Q 44.484375 40.625 41.703125 44.40625 
Q 38.921875 48.1875 33.109375 48.1875 
Q 26.21875 48.1875 22.15625 43.53125 
Q 18.109375 38.875 18.109375 30.90625 
L 18.109375 0 
L 9.078125 0 
L 9.078125 54.6875 
L 18.109375 54.6875 
L 18.109375 46.1875 
Q 21.1875 51.21875 25.484375 53.609375 
Q 29.78125 56 35.6875 56 
Q 41.65625 56 45.828125 52.96875 
Q 50 49.953125 52 44.1875 
" id="BitstreamVeraSans-Roman-6d"/>
     <path d="M 30.609375 48.390625 
Q 23.390625 48.390625 19.1875 42.75 
Q 14.984375 37.109375 14.984375 27.296875 
Q 14.984375 17.484375 19.15625 11.84375 
Q 23.34375 6.203125 30.609375 6.203125 
Q 37.796875 6.203125 41.984375 11.859375 
Q 46.1875 17.53125 46.1875 27.296875 
Q 46.1875 37.015625 41.984375 42.703125 
Q 37.796875 48.390625 30.609375 48.390625 
M 30.609375 56 
Q 42.328125 56 49.015625 48.375 
Q 55.71875 40.765625 55.71875 27.296875 
Q 55.71875 13.875 49.015625 6.21875 
Q 42.328125 -1.421875 30.609375 -1.421875 
Q 18.84375 -1.421875 12.171875 6.21875 
Q 5.515625 13.875 5.515625 27.296875 
Q 5.515625 40.765625 12.171875 48.375 
Q 18.84375 56 30.609375 56 
" id="BitstreamVeraSans-Roman-6f"/>
     <path d="M 9.421875 75.984375 
L 18.40625 75.984375 
L 18.40625 0 
L 9.421875 0 
z
" id="BitstreamVeraSans-Roman-6c"/>
     <path d="M 9.421875 54.6875 
L 18.40625 54.6875 
L 18.40625 0 
L 9.421875 0 
z
M 9.421875 75.984375 
L 18.40625 75.984375 
L 18.40625 64.59375 
L 9.421875 64.59375 
z
" id="BitstreamVeraSans-Roman-69"/>
     <path d="M 10.6875 12.40625 
L 21 12.40625 
L 21 0 
L 10.6875 0 
z
" id="BitstreamVeraSans-Roman-2e"/>
     <path d="M 45.40625 27.984375 
Q 45.40625 37.75 41.375 43.109375 
Q 37.359375 48.484375 30.078125 48.484375 
Q 22.859375 48.484375 18.828125 43.109375 
Q 14.796875 37.75 14.796875 27.984375 
Q 14.796875 18.265625 18.828125 12.890625 
Q 22.859375 7.515625 30.078125 7.515625 
Q 37.359375 7.515625 41.375 12.890625 
Q 45.40625 18.265625 45.40625 27.984375 
M 54.390625 6.78125 
Q 54.390625 -7.171875 48.1875 -13.984375 
Q 42 -20.796875 29.203125 -20.796875 
Q 24.46875 -20.796875 20.265625 -20.09375 
Q 16.0625 -19.390625 12.109375 -17.921875 
L 12.109375 -9.1875 
Q 16.0625 -11.328125 19.921875 -12.34375 
Q 23.78125 -13.375 27.78125 -13.375 
Q 36.625 -13.375 41.015625 -8.765625 
Q 45.40625 -4.15625 45.40625 5.171875 
L 45.40625 9.625 
Q 42.625 4.78125 38.28125 2.390625 
Q 33.9375 0 27.875 0 
Q 17.828125 0 11.671875 7.65625 
Q 5.515625 15.328125 5.515625 27.984375 
Q 5.515625 40.671875 11.671875 48.328125 
Q 17.828125 56 27.875 56 
Q 33.9375 56 38.28125 53.609375 
Q 42.625 51.21875 45.40625 46.390625 
L 45.40625 54.6875 
L 54.390625 54.6875 
z
" id="BitstreamVeraSans-Roman-67"/>
     <path d="M 48.78125 52.59375 
L 48.78125 44.1875 
Q 44.96875 46.296875 41.140625 47.34375 
Q 37.3125 48.390625 33.40625 48.390625 
Q 24.65625 48.390625 19.8125 42.84375 
Q 14.984375 37.3125 14.984375 27.296875 
Q 14.984375 17.28125 19.8125 11.734375 
Q 24.65625 6.203125 33.40625 6.203125 
Q 37.3125 6.203125 41.140625 7.25 
Q 44.96875 8.296875 48.78125 10.40625 
L 48.78125 2.09375 
Q 45.015625 0.34375 40.984375 -0.53125 
Q 36.96875 -1.421875 32.421875 -1.421875 
Q 20.0625 -1.421875 12.78125 6.34375 
Q 5.515625 14.109375 5.515625 27.296875 
Q 5.515625 40.671875 12.859375 48.328125 
Q 20.21875 56 33.015625 56 
Q 37.15625 56 41.109375 55.140625 
Q 45.0625 54.296875 48.78125 52.59375 
" id="BitstreamVeraSans-Roman-63"/>
    </defs>
    <g transform="translate(121.459709821 165.641375)scale(0.1 -0.1)">
     <use xlink:href="#BitstreamVeraSans-Roman-4f"/>
     <use x="78.7109375" xlink:href="#BitstreamVeraSans-Roman-6c"/>
     <use x="106.494140625" xlink:href="#BitstreamVeraSans-Roman-69"/>
     <use x="134.27734375" xlink:href="#BitstreamVeraSans-Roman-67"/>
     <use x="197.75390625" xlink:href="#BitstreamVeraSans-Roman-6f"/>
     <use x="258.919921875" xlink:href="#BitstreamVeraSans-Roman-2e"/>
     <use x="290.70703125" xlink:href="#BitstreamVeraSans-Roman-63"/>
     <use x="345.6875" xlink:href="#BitstreamVeraSans-Roman-6f"/>
     <use x="406.869140625" xlink:href="#BitstreamVeraSans-Roman-6d"/>
    </g>
   </g>
   <g id="text_3">
    <!--  -->
    <defs>
     <path d="M 85.21875 4.90625 
Q 88.34375 -0.0625 86.40625 -3.59375 
Q 84.484375 -7.140625 78.578125 -7.140625 
L 14.28125 -7.140625 
Q 8.375 -7.140625 6.4375 -3.59375 
Q 4.515625 -0.0625 7.640625 4.90625 
L 35.71875 49.15625 
L 35.71875 71.421875 
L 32.140625 71.421875 
Q 30.6875 71.421875 29.625 72.484375 
Q 28.578125 73.546875 28.578125 75 
Q 28.578125 76.453125 29.625 77.515625 
Q 30.6875 78.578125 32.140625 78.578125 
L 60.71875 78.578125 
Q 62.171875 78.578125 63.21875 77.515625 
Q 64.28125 76.453125 64.28125 75 
Q 64.28125 73.546875 63.21875 72.484375 
Q 62.171875 71.421875 60.71875 71.421875 
L 57.140625 71.421875 
L 57.140625 49.15625 
z
M 41.734375 45.375 
L 26.5625 21.421875 
L 66.296875 21.421875 
L 51.109375 45.375 
L 50 47.09375 
L 50 49.15625 
L 50 71.421875 
L 42.859375 71.421875 
L 42.859375 49.15625 
L 42.859375 47.09375 
z
" id="FontAwesome-f0c3"/>
    </defs>
    <g transform="translate(257.888638393 269.5684375)scale(0.18 -0.18)">
     <use xlink:href="#FontAwesome-f0c3"/>
    </g>
   </g>
   <g id="text_4">
    <!-- Oligo -->
    <g transform="translate(253.298325893 226.94575)scale(0.1 -0.1)">
     <use xlink:href="#BitstreamVeraSans-Roman-4f"/>
     <use x="78.7109375" xlink:href="#BitstreamVeraSans-Roman-6c"/>
     <use x="106.494140625" xlink:href="#BitstreamVeraSans-Roman-69"/>
     <use x="134.27734375" xlink:href="#BitstreamVeraSans-Roman-67"/>
     <use x="197.75390625" xlink:href="#BitstreamVeraSans-Roman-6f"/>
    </g>
    <!-- Assembly -->
    <defs>
     <path d="M 56.203125 29.59375 
L 56.203125 25.203125 
L 14.890625 25.203125 
Q 15.484375 15.921875 20.484375 11.0625 
Q 25.484375 6.203125 34.421875 6.203125 
Q 39.59375 6.203125 44.453125 7.46875 
Q 49.3125 8.734375 54.109375 11.28125 
L 54.109375 2.78125 
Q 49.265625 0.734375 44.1875 -0.34375 
Q 39.109375 -1.421875 33.890625 -1.421875 
Q 20.796875 -1.421875 13.15625 6.1875 
Q 5.515625 13.8125 5.515625 26.8125 
Q 5.515625 40.234375 12.765625 48.109375 
Q 20.015625 56 32.328125 56 
Q 43.359375 56 49.78125 48.890625 
Q 56.203125 41.796875 56.203125 29.59375 
M 47.21875 32.234375 
Q 47.125 39.59375 43.09375 43.984375 
Q 39.0625 48.390625 32.421875 48.390625 
Q 24.90625 48.390625 20.390625 44.140625 
Q 15.875 39.890625 15.1875 32.171875 
z
" id="BitstreamVeraSans-Roman-65"/>
     <path d="M 32.171875 -5.078125 
Q 28.375 -14.84375 24.75 -17.8125 
Q 21.140625 -20.796875 15.09375 -20.796875 
L 7.90625 -20.796875 
L 7.90625 -13.28125 
L 13.1875 -13.28125 
Q 16.890625 -13.28125 18.9375 -11.515625 
Q 21 -9.765625 23.484375 -3.21875 
L 25.09375 0.875 
L 2.984375 54.6875 
L 12.5 54.6875 
L 29.59375 11.921875 
L 46.6875 54.6875 
L 56.203125 54.6875 
z
" id="BitstreamVeraSans-Roman-79"/>
     <path d="M 44.28125 53.078125 
L 44.28125 44.578125 
Q 40.484375 46.53125 36.375 47.5 
Q 32.28125 48.484375 27.875 48.484375 
Q 21.1875 48.484375 17.84375 46.4375 
Q 14.5 44.390625 14.5 40.28125 
Q 14.5 37.15625 16.890625 35.375 
Q 19.28125 33.59375 26.515625 31.984375 
L 29.59375 31.296875 
Q 39.15625 29.25 43.1875 25.515625 
Q 47.21875 21.78125 47.21875 15.09375 
Q 47.21875 7.46875 41.1875 3.015625 
Q 35.15625 -1.421875 24.609375 -1.421875 
Q 20.21875 -1.421875 15.453125 -0.5625 
Q 10.6875 0.296875 5.421875 2 
L 5.421875 11.28125 
Q 10.40625 8.6875 15.234375 7.390625 
Q 20.0625 6.109375 24.8125 6.109375 
Q 31.15625 6.109375 34.5625 8.28125 
Q 37.984375 10.453125 37.984375 14.40625 
Q 37.984375 18.0625 35.515625 20.015625 
Q 33.0625 21.96875 24.703125 23.78125 
L 21.578125 24.515625 
Q 13.234375 26.265625 9.515625 29.90625 
Q 5.8125 33.546875 5.8125 39.890625 
Q 5.8125 47.609375 11.28125 51.796875 
Q 16.75 56 26.8125 56 
Q 31.78125 56 36.171875 55.265625 
Q 40.578125 54.546875 44.28125 53.078125 
" id="BitstreamVeraSans-Roman-73"/>
     <path d="M 34.1875 63.1875 
L 20.796875 26.90625 
L 47.609375 26.90625 
z
M 28.609375 72.90625 
L 39.796875 72.90625 
L 67.578125 0 
L 57.328125 0 
L 50.6875 18.703125 
L 17.828125 18.703125 
L 11.1875 0 
L 0.78125 0 
z
" id="BitstreamVeraSans-Roman-41"/>
     <path d="M 48.6875 27.296875 
Q 48.6875 37.203125 44.609375 42.84375 
Q 40.53125 48.484375 33.40625 48.484375 
Q 26.265625 48.484375 22.1875 42.84375 
Q 18.109375 37.203125 18.109375 27.296875 
Q 18.109375 17.390625 22.1875 11.75 
Q 26.265625 6.109375 33.40625 6.109375 
Q 40.53125 6.109375 44.609375 11.75 
Q 48.6875 17.390625 48.6875 27.296875 
M 18.109375 46.390625 
Q 20.953125 51.265625 25.265625 53.625 
Q 29.59375 56 35.59375 56 
Q 45.5625 56 51.78125 48.09375 
Q 58.015625 40.1875 58.015625 27.296875 
Q 58.015625 14.40625 51.78125 6.484375 
Q 45.5625 -1.421875 35.59375 -1.421875 
Q 29.59375 -1.421875 25.265625 0.953125 
Q 20.953125 3.328125 18.109375 8.203125 
L 18.109375 0 
L 9.078125 0 
L 9.078125 75.984375 
L 18.109375 75.984375 
z
" id="BitstreamVeraSans-Roman-62"/>
    </defs>
    <g transform="translate(242.146763393 238.1435625)scale(0.1 -0.1)">
     <use xlink:href="#BitstreamVeraSans-Roman-41"/>
     <use x="68.408203125" xlink:href="#BitstreamVeraSans-Roman-73"/>
     <use x="120.5078125" xlink:href="#BitstreamVeraSans-Roman-73"/>
     <use x="172.607421875" xlink:href="#BitstreamVeraSans-Roman-65"/>
     <use x="234.130859375" xlink:href="#BitstreamVeraSans-Roman-6d"/>
     <use x="331.54296875" xlink:href="#BitstreamVeraSans-Roman-62"/>
     <use x="395.01953125" xlink:href="#BitstreamVeraSans-Roman-6c"/>
     <use x="422.802734375" xlink:href="#BitstreamVeraSans-Roman-79"/>
    </g>
    <!-- Station -->
    <defs>
     <path d="M 54.890625 33.015625 
L 54.890625 0 
L 45.90625 0 
L 45.90625 32.71875 
Q 45.90625 40.484375 42.875 44.328125 
Q 39.84375 48.1875 33.796875 48.1875 
Q 26.515625 48.1875 22.3125 43.546875 
Q 18.109375 38.921875 18.109375 30.90625 
L 18.109375 0 
L 9.078125 0 
L 9.078125 54.6875 
L 18.109375 54.6875 
L 18.109375 46.1875 
Q 21.34375 51.125 25.703125 53.5625 
Q 30.078125 56 35.796875 56 
Q 45.21875 56 50.046875 50.171875 
Q 54.890625 44.34375 54.890625 33.015625 
" id="BitstreamVeraSans-Roman-6e"/>
     <path d="M 18.3125 70.21875 
L 18.3125 54.6875 
L 36.8125 54.6875 
L 36.8125 47.703125 
L 18.3125 47.703125 
L 18.3125 18.015625 
Q 18.3125 11.328125 20.140625 9.421875 
Q 21.96875 7.515625 27.59375 7.515625 
L 36.8125 7.515625 
L 36.8125 0 
L 27.59375 0 
Q 17.1875 0 13.234375 3.875 
Q 9.28125 7.765625 9.28125 18.015625 
L 9.28125 47.703125 
L 2.6875 47.703125 
L 2.6875 54.6875 
L 9.28125 54.6875 
L 9.28125 70.21875 
z
" id="BitstreamVeraSans-Roman-74"/>
     <path d="M 53.515625 70.515625 
L 53.515625 60.890625 
Q 47.90625 63.578125 42.921875 64.890625 
Q 37.9375 66.21875 33.296875 66.21875 
Q 25.25 66.21875 20.875 63.09375 
Q 16.5 59.96875 16.5 54.203125 
Q 16.5 49.359375 19.40625 46.890625 
Q 22.3125 44.4375 30.421875 42.921875 
L 36.375 41.703125 
Q 47.40625 39.59375 52.65625 34.296875 
Q 57.90625 29 57.90625 20.125 
Q 57.90625 9.515625 50.796875 4.046875 
Q 43.703125 -1.421875 29.984375 -1.421875 
Q 24.8125 -1.421875 18.96875 -0.25 
Q 13.140625 0.921875 6.890625 3.21875 
L 6.890625 13.375 
Q 12.890625 10.015625 18.65625 8.296875 
Q 24.421875 6.59375 29.984375 6.59375 
Q 38.421875 6.59375 43.015625 9.90625 
Q 47.609375 13.234375 47.609375 19.390625 
Q 47.609375 24.75 44.3125 27.78125 
Q 41.015625 30.8125 33.5 32.328125 
L 27.484375 33.5 
Q 16.453125 35.6875 11.515625 40.375 
Q 6.59375 45.0625 6.59375 53.421875 
Q 6.59375 63.09375 13.40625 68.65625 
Q 20.21875 74.21875 32.171875 74.21875 
Q 37.3125 74.21875 42.625 73.28125 
Q 47.953125 72.359375 53.515625 70.515625 
" id="BitstreamVeraSans-Roman-53"/>
     <path d="M 34.28125 27.484375 
Q 23.390625 27.484375 19.1875 25 
Q 14.984375 22.515625 14.984375 16.5 
Q 14.984375 11.71875 18.140625 8.90625 
Q 21.296875 6.109375 26.703125 6.109375 
Q 34.1875 6.109375 38.703125 11.40625 
Q 43.21875 16.703125 43.21875 25.484375 
L 43.21875 27.484375 
z
M 52.203125 31.203125 
L 52.203125 0 
L 43.21875 0 
L 43.21875 8.296875 
Q 40.140625 3.328125 35.546875 0.953125 
Q 30.953125 -1.421875 24.3125 -1.421875 
Q 15.921875 -1.421875 10.953125 3.296875 
Q 6 8.015625 6 15.921875 
Q 6 25.140625 12.171875 29.828125 
Q 18.359375 34.515625 30.609375 34.515625 
L 43.21875 34.515625 
L 43.21875 35.40625 
Q 43.21875 41.609375 39.140625 45 
Q 35.0625 48.390625 27.6875 48.390625 
Q 23 48.390625 18.546875 47.265625 
Q 14.109375 46.140625 10.015625 43.890625 
L 10.015625 52.203125 
Q 14.9375 54.109375 19.578125 55.046875 
Q 24.21875 56 28.609375 56 
Q 40.484375 56 46.34375 49.84375 
Q 52.203125 43.703125 52.203125 31.203125 
" id="BitstreamVeraSans-Roman-61"/>
    </defs>
    <g transform="translate(248.470200893 249.341375)scale(0.1 -0.1)">
     <use xlink:href="#BitstreamVeraSans-Roman-53"/>
     <use x="63.4765625" xlink:href="#BitstreamVeraSans-Roman-74"/>
     <use x="102.685546875" xlink:href="#BitstreamVeraSans-Roman-61"/>
     <use x="163.96484375" xlink:href="#BitstreamVeraSans-Roman-74"/>
     <use x="203.173828125" xlink:href="#BitstreamVeraSans-Roman-69"/>
     <use x="230.95703125" xlink:href="#BitstreamVeraSans-Roman-6f"/>
     <use x="292.138671875" xlink:href="#BitstreamVeraSans-Roman-6e"/>
    </g>
   </g>
   <g id="text_5">
    <!--  -->
    <g transform="translate(257.245982143 185.8684375)scale(0.18 -0.18)">
     <use xlink:href="#FontAwesome-f275"/>
    </g>
   </g>
   <g id="text_6">
    <!-- CheapDNA.com -->
    <defs>
     <path d="M 9.8125 72.90625 
L 23.09375 72.90625 
L 55.421875 11.921875 
L 55.421875 72.90625 
L 64.984375 72.90625 
L 64.984375 0 
L 51.703125 0 
L 19.390625 60.984375 
L 19.390625 0 
L 9.8125 0 
z
" id="BitstreamVeraSans-Roman-4e"/>
     <path d="M 19.671875 64.796875 
L 19.671875 8.109375 
L 31.59375 8.109375 
Q 46.6875 8.109375 53.6875 14.9375 
Q 60.6875 21.78125 60.6875 36.53125 
Q 60.6875 51.171875 53.6875 57.984375 
Q 46.6875 64.796875 31.59375 64.796875 
z
M 9.8125 72.90625 
L 30.078125 72.90625 
Q 51.265625 72.90625 61.171875 64.09375 
Q 71.09375 55.28125 71.09375 36.53125 
Q 71.09375 17.671875 61.125 8.828125 
Q 51.171875 0 30.078125 0 
L 9.8125 0 
z
" id="BitstreamVeraSans-Roman-44"/>
     <path d="M 64.40625 67.28125 
L 64.40625 56.890625 
Q 59.421875 61.53125 53.78125 63.8125 
Q 48.140625 66.109375 41.796875 66.109375 
Q 29.296875 66.109375 22.65625 58.46875 
Q 16.015625 50.828125 16.015625 36.375 
Q 16.015625 21.96875 22.65625 14.328125 
Q 29.296875 6.6875 41.796875 6.6875 
Q 48.140625 6.6875 53.78125 8.984375 
Q 59.421875 11.28125 64.40625 15.921875 
L 64.40625 5.609375 
Q 59.234375 2.09375 53.4375 0.328125 
Q 47.65625 -1.421875 41.21875 -1.421875 
Q 24.65625 -1.421875 15.125 8.703125 
Q 5.609375 18.84375 5.609375 36.375 
Q 5.609375 53.953125 15.125 64.078125 
Q 24.65625 74.21875 41.21875 74.21875 
Q 47.75 74.21875 53.53125 72.484375 
Q 59.328125 70.75 64.40625 67.28125 
" id="BitstreamVeraSans-Roman-43"/>
     <path d="M 54.890625 33.015625 
L 54.890625 0 
L 45.90625 0 
L 45.90625 32.71875 
Q 45.90625 40.484375 42.875 44.328125 
Q 39.84375 48.1875 33.796875 48.1875 
Q 26.515625 48.1875 22.3125 43.546875 
Q 18.109375 38.921875 18.109375 30.90625 
L 18.109375 0 
L 9.078125 0 
L 9.078125 75.984375 
L 18.109375 75.984375 
L 18.109375 46.1875 
Q 21.34375 51.125 25.703125 53.5625 
Q 30.078125 56 35.796875 56 
Q 45.21875 56 50.046875 50.171875 
Q 54.890625 44.34375 54.890625 33.015625 
" id="BitstreamVeraSans-Roman-68"/>
     <path d="M 18.109375 8.203125 
L 18.109375 -20.796875 
L 9.078125 -20.796875 
L 9.078125 54.6875 
L 18.109375 54.6875 
L 18.109375 46.390625 
Q 20.953125 51.265625 25.265625 53.625 
Q 29.59375 56 35.59375 56 
Q 45.5625 56 51.78125 48.09375 
Q 58.015625 40.1875 58.015625 27.296875 
Q 58.015625 14.40625 51.78125 6.484375 
Q 45.5625 -1.421875 35.59375 -1.421875 
Q 29.59375 -1.421875 25.265625 0.953125 
Q 20.953125 3.328125 18.109375 8.203125 
M 48.6875 27.296875 
Q 48.6875 37.203125 44.609375 42.84375 
Q 40.53125 48.484375 33.40625 48.484375 
Q 26.265625 48.484375 22.1875 42.84375 
Q 18.109375 37.203125 18.109375 27.296875 
Q 18.109375 17.390625 22.1875 11.75 
Q 26.265625 6.109375 33.40625 6.109375 
Q 40.53125 6.109375 44.609375 11.75 
Q 48.6875 17.390625 48.6875 27.296875 
" id="BitstreamVeraSans-Roman-70"/>
    </defs>
    <g transform="translate(226.992857143 165.641375)scale(0.1 -0.1)">
     <use xlink:href="#BitstreamVeraSans-Roman-43"/>
     <use x="69.82421875" xlink:href="#BitstreamVeraSans-Roman-68"/>
     <use x="133.203125" xlink:href="#BitstreamVeraSans-Roman-65"/>
     <use x="194.7265625" xlink:href="#BitstreamVeraSans-Roman-61"/>
     <use x="256.005859375" xlink:href="#BitstreamVeraSans-Roman-70"/>
     <use x="319.482421875" xlink:href="#BitstreamVeraSans-Roman-44"/>
     <use x="396.484375" xlink:href="#BitstreamVeraSans-Roman-4e"/>
     <use x="471.2890625" xlink:href="#BitstreamVeraSans-Roman-41"/>
     <use x="539.681640625" xlink:href="#BitstreamVeraSans-Roman-2e"/>
     <use x="571.46875" xlink:href="#BitstreamVeraSans-Roman-63"/>
     <use x="626.44921875" xlink:href="#BitstreamVeraSans-Roman-6f"/>
     <use x="687.630859375" xlink:href="#BitstreamVeraSans-Roman-6d"/>
    </g>
   </g>
   <g id="text_7">
    <!--  -->
    <g transform="translate(257.245982143 102.1684375)scale(0.18 -0.18)">
     <use xlink:href="#FontAwesome-f275"/>
    </g>
   </g>
   <g id="text_8">
    <!-- DeluxeDNA.com -->
    <defs>
     <path d="M 8.5 21.578125 
L 8.5 54.6875 
L 17.484375 54.6875 
L 17.484375 21.921875 
Q 17.484375 14.15625 20.5 10.265625 
Q 23.53125 6.390625 29.59375 6.390625 
Q 36.859375 6.390625 41.078125 11.03125 
Q 45.3125 15.671875 45.3125 23.6875 
L 45.3125 54.6875 
L 54.296875 54.6875 
L 54.296875 0 
L 45.3125 0 
L 45.3125 8.40625 
Q 42.046875 3.421875 37.71875 1 
Q 33.40625 -1.421875 27.6875 -1.421875 
Q 18.265625 -1.421875 13.375 4.4375 
Q 8.5 10.296875 8.5 21.578125 
" id="BitstreamVeraSans-Roman-75"/>
     <path d="M 54.890625 54.6875 
L 35.109375 28.078125 
L 55.90625 0 
L 45.3125 0 
L 29.390625 21.484375 
L 13.484375 0 
L 2.875 0 
L 24.125 28.609375 
L 4.6875 54.6875 
L 15.28125 54.6875 
L 29.78125 35.203125 
L 44.28125 54.6875 
z
" id="BitstreamVeraSans-Roman-78"/>
    </defs>
    <g transform="translate(225.449888393 81.941375)scale(0.1 -0.1)">
     <use xlink:href="#BitstreamVeraSans-Roman-44"/>
     <use x="77.001953125" xlink:href="#BitstreamVeraSans-Roman-65"/>
     <use x="138.525390625" xlink:href="#BitstreamVeraSans-Roman-6c"/>
     <use x="166.30859375" xlink:href="#BitstreamVeraSans-Roman-75"/>
     <use x="229.6875" xlink:href="#BitstreamVeraSans-Roman-78"/>
     <use x="288.8203125" xlink:href="#BitstreamVeraSans-Roman-65"/>
     <use x="350.34375" xlink:href="#BitstreamVeraSans-Roman-44"/>
     <use x="427.345703125" xlink:href="#BitstreamVeraSans-Roman-4e"/>
     <use x="502.150390625" xlink:href="#BitstreamVeraSans-Roman-41"/>
     <use x="570.54296875" xlink:href="#BitstreamVeraSans-Roman-2e"/>
     <use x="602.330078125" xlink:href="#BitstreamVeraSans-Roman-63"/>
     <use x="657.310546875" xlink:href="#BitstreamVeraSans-Roman-6f"/>
     <use x="718.4921875" xlink:href="#BitstreamVeraSans-Roman-6d"/>
    </g>
   </g>
   <g id="text_9">
    <!--  -->
    <defs>
     <path d="M 65.0625 57.921875 
Q 51.109375 66.078125 42.84375 66.078125 
Q 34.59375 66.078125 27.609375 62 
Q 20.640625 57.921875 16.5625 50.9375 
Q 12.5 43.96875 12.5 35.703125 
Q 12.5 27.453125 16.5625 20.46875 
Q 20.640625 13.5 27.609375 9.421875 
Q 34.59375 5.359375 42.84375 5.359375 
Q 51.109375 5.359375 58.078125 9.421875 
Q 65.0625 13.5 69.140625 20.46875 
Q 73.21875 27.453125 73.21875 35.703125 
Q 73.21875 43.96875 69.140625 50.9375 
Q 65.0625 57.921875 51.109375 66.078125 
M 74.21875 67.078125 
Q 85.71875 47.375 85.71875 35.703125 
Q 85.71875 24.046875 79.96875 14.203125 
Q 74.21875 4.359375 64.359375 -1.390625 
Q 54.515625 -7.140625 42.84375 -7.140625 
Q 31.1875 -7.140625 21.34375 -1.390625 
Q 11.5 4.359375 5.75 14.203125 
Q 0 24.046875 0 35.703125 
Q 0 47.375 5.75 57.21875 
Q 11.5 67.078125 21.34375 72.828125 
Q 31.1875 78.578125 42.84375 78.578125 
Q 54.515625 78.578125 64.359375 72.828125 
Q 74.21875 67.078125 85.71875 47.375 
" id="FontAwesome-f10c"/>
    </defs>
    <g transform="translate(378.102723214 185.8684375)scale(0.18 -0.18)">
     <use xlink:href="#FontAwesome-f10c"/>
    </g>
   </g>
   <g id="text_10">
    <!--  -->
    <defs>
     <path d="M 46.65625 20.484375 
L 45.8125 -0.0625 
L 45.703125 -1.28125 
L 22.265625 0.328125 
Q 20.25 0.5 18.515625 2.09375 
Q 16.796875 3.6875 15.90625 5.75 
Q 15.296875 7.25 15.09375 8.8125 
Q 14.90625 10.375 15.3125 12.4375 
Q 15.734375 14.515625 15.984375 15.515625 
Q 16.234375 16.515625 17.1875 19.078125 
Q 18.140625 21.65625 18.25 22.046875 
Q 22.59375 21.375 46.65625 20.484375 
M 25.0625 53.1875 
L 35.09375 32.03125 
L 26.890625 37.171875 
Q 23.375 33.140625 20.671875 29.09375 
Q 17.96875 25.0625 16.625 22.125 
Q 15.296875 19.203125 14.421875 16.859375 
Q 13.5625 14.515625 13.390625 13.34375 
L 13.171875 12.171875 
L 2.5625 32.09375 
Q 1.625 33.53125 1.5625 35.203125 
Q 1.5 36.890625 1.890625 37.828125 
L 2.34375 38.84375 
Q 4.296875 42.359375 8.703125 49.328125 
L 0.890625 54.125 
z
M 93.75 24.328125 
L 83.265625 4.296875 
Q 82.59375 2.671875 81.21875 1.6875 
Q 79.859375 0.71875 78.796875 0.5625 
L 77.796875 0.328125 
Q 73.828125 -0.0625 65.5625 -0.328125 
L 66.015625 -9.484375 
L 53.1875 11 
L 64.953125 31.1875 
L 65.34375 21.546875 
Q 74.828125 20.640625 81.125 21.25 
Q 87.4375 21.875 90.625 23.109375 
z
M 49.9375 75.890625 
Q 47.328125 72.375 35.15625 51.625 
L 17.46875 62.046875 
L 16.40625 62.71875 
L 28.96875 82.59375 
Q 30.078125 84.3125 32.3125 85.09375 
Q 34.546875 85.875 36.78125 85.65625 
Q 38.109375 85.546875 39.46875 84.984375 
Q 40.84375 84.4375 41.8125 83.8125 
Q 42.796875 83.203125 44.140625 81.96875 
Q 45.484375 80.75 46.140625 80.046875 
Q 46.8125 79.359375 48.15625 77.84375 
Q 49.5 76.34375 49.9375 75.890625 
M 86.5 58.765625 
L 98.328125 38.5 
Q 99.328125 36.4375 99.015625 34.265625 
Q 98.71875 32.09375 97.484375 30.140625 
Q 96.765625 29.015625 95.640625 28.0625 
Q 94.53125 27.125 93.515625 26.5 
Q 92.515625 25.890625 90.8125 25.28125 
Q 89.125 24.671875 88.203125 24.390625 
Q 87.28125 24.109375 85.328125 23.609375 
Q 83.375 23.109375 82.75 22.9375 
Q 80.859375 26.953125 67.96875 47.265625 
L 85.4375 58.140625 
z
M 78.515625 71.375 
L 86.4375 76 
L 74.15625 55.1875 
L 50.78125 56.3125 
L 59.203125 61.109375 
Q 57.3125 66.078125 55.015625 70.375 
Q 52.734375 74.671875 50.8125 77.265625 
Q 48.890625 79.859375 47.203125 81.71875 
Q 45.53125 83.59375 44.59375 84.3125 
L 43.640625 85.046875 
L 66.234375 84.984375 
Q 67.96875 85.15625 69.46875 84.40625 
Q 70.984375 83.65625 71.65625 82.8125 
L 72.265625 81.96875 
Q 74.4375 78.578125 78.515625 71.375 
" id="FontAwesome-f1b8"/>
    </defs>
    <g transform="translate(496.388839286 270.01421875)scale(0.18 -0.18)">
     <use xlink:href="#FontAwesome-f1b8"/>
    </g>
   </g>
   <g id="text_11">
    <!-- E. coli -->
    <defs>
     <path id="BitstreamVeraSans-Roman-20"/>
     <path d="M 9.8125 72.90625 
L 55.90625 72.90625 
L 55.90625 64.59375 
L 19.671875 64.59375 
L 19.671875 43.015625 
L 54.390625 43.015625 
L 54.390625 34.71875 
L 19.671875 34.71875 
L 19.671875 8.296875 
L 56.78125 8.296875 
L 56.78125 0 
L 9.8125 0 
z
" id="BitstreamVeraSans-Roman-45"/>
    </defs>
    <g transform="translate(490.464620536 238.1435625)scale(0.1 -0.1)">
     <use xlink:href="#BitstreamVeraSans-Roman-45"/>
     <use x="63.18359375" xlink:href="#BitstreamVeraSans-Roman-2e"/>
     <use x="94.970703125" xlink:href="#BitstreamVeraSans-Roman-20"/>
     <use x="126.7578125" xlink:href="#BitstreamVeraSans-Roman-63"/>
     <use x="181.73828125" xlink:href="#BitstreamVeraSans-Roman-6f"/>
     <use x="242.919921875" xlink:href="#BitstreamVeraSans-Roman-6c"/>
     <use x="270.703125" xlink:href="#BitstreamVeraSans-Roman-69"/>
    </g>
    <!-- Genome (PCR) -->
    <defs>
     <path d="M 59.515625 10.40625 
L 59.515625 29.984375 
L 43.40625 29.984375 
L 43.40625 38.09375 
L 69.28125 38.09375 
L 69.28125 6.78125 
Q 63.578125 2.734375 56.6875 0.65625 
Q 49.8125 -1.421875 42 -1.421875 
Q 24.90625 -1.421875 15.25 8.5625 
Q 5.609375 18.5625 5.609375 36.375 
Q 5.609375 54.25 15.25 64.234375 
Q 24.90625 74.21875 42 74.21875 
Q 49.125 74.21875 55.546875 72.453125 
Q 61.96875 70.703125 67.390625 67.28125 
L 67.390625 56.78125 
Q 61.921875 61.421875 55.765625 63.765625 
Q 49.609375 66.109375 42.828125 66.109375 
Q 29.4375 66.109375 22.71875 58.640625 
Q 16.015625 51.171875 16.015625 36.375 
Q 16.015625 21.625 22.71875 14.15625 
Q 29.4375 6.6875 42.828125 6.6875 
Q 48.046875 6.6875 52.140625 7.59375 
Q 56.25 8.5 59.515625 10.40625 
" id="BitstreamVeraSans-Roman-47"/>
     <path d="M 31 75.875 
Q 24.46875 64.65625 21.28125 53.65625 
Q 18.109375 42.671875 18.109375 31.390625 
Q 18.109375 20.125 21.3125 9.0625 
Q 24.515625 -2 31 -13.1875 
L 23.1875 -13.1875 
Q 15.875 -1.703125 12.234375 9.375 
Q 8.59375 20.453125 8.59375 31.390625 
Q 8.59375 42.28125 12.203125 53.3125 
Q 15.828125 64.359375 23.1875 75.875 
z
" id="BitstreamVeraSans-Roman-28"/>
     <path d="M 44.390625 34.1875 
Q 47.5625 33.109375 50.5625 29.59375 
Q 53.5625 26.078125 56.59375 19.921875 
L 66.609375 0 
L 56 0 
L 46.6875 18.703125 
Q 43.0625 26.03125 39.671875 28.421875 
Q 36.28125 30.8125 30.421875 30.8125 
L 19.671875 30.8125 
L 19.671875 0 
L 9.8125 0 
L 9.8125 72.90625 
L 32.078125 72.90625 
Q 44.578125 72.90625 50.734375 67.671875 
Q 56.890625 62.453125 56.890625 51.90625 
Q 56.890625 45.015625 53.6875 40.46875 
Q 50.484375 35.9375 44.390625 34.1875 
M 19.671875 64.796875 
L 19.671875 38.921875 
L 32.078125 38.921875 
Q 39.203125 38.921875 42.84375 42.21875 
Q 46.484375 45.515625 46.484375 51.90625 
Q 46.484375 58.296875 42.84375 61.546875 
Q 39.203125 64.796875 32.078125 64.796875 
z
" id="BitstreamVeraSans-Roman-52"/>
     <path d="M 19.671875 64.796875 
L 19.671875 37.40625 
L 32.078125 37.40625 
Q 38.96875 37.40625 42.71875 40.96875 
Q 46.484375 44.53125 46.484375 51.125 
Q 46.484375 57.671875 42.71875 61.234375 
Q 38.96875 64.796875 32.078125 64.796875 
z
M 9.8125 72.90625 
L 32.078125 72.90625 
Q 44.34375 72.90625 50.609375 67.359375 
Q 56.890625 61.8125 56.890625 51.125 
Q 56.890625 40.328125 50.609375 34.8125 
Q 44.34375 29.296875 32.078125 29.296875 
L 19.671875 29.296875 
L 19.671875 0 
L 9.8125 0 
z
" id="BitstreamVeraSans-Roman-50"/>
     <path d="M 8.015625 75.875 
L 15.828125 75.875 
Q 23.140625 64.359375 26.78125 53.3125 
Q 30.421875 42.28125 30.421875 31.390625 
Q 30.421875 20.453125 26.78125 9.375 
Q 23.140625 -1.703125 15.828125 -13.1875 
L 8.015625 -13.1875 
Q 14.5 -2 17.703125 9.0625 
Q 20.90625 20.125 20.90625 31.390625 
Q 20.90625 42.671875 17.703125 53.65625 
Q 14.5 64.65625 8.015625 75.875 
" id="BitstreamVeraSans-Roman-29"/>
    </defs>
    <g transform="translate(468.791964286 249.341375)scale(0.1 -0.1)">
     <use xlink:href="#BitstreamVeraSans-Roman-47"/>
     <use x="77.490234375" xlink:href="#BitstreamVeraSans-Roman-65"/>
     <use x="139.013671875" xlink:href="#BitstreamVeraSans-Roman-6e"/>
     <use x="202.392578125" xlink:href="#BitstreamVeraSans-Roman-6f"/>
     <use x="263.57421875" xlink:href="#BitstreamVeraSans-Roman-6d"/>
     <use x="360.986328125" xlink:href="#BitstreamVeraSans-Roman-65"/>
     <use x="422.509765625" xlink:href="#BitstreamVeraSans-Roman-20"/>
     <use x="454.296875" xlink:href="#BitstreamVeraSans-Roman-28"/>
     <use x="493.310546875" xlink:href="#BitstreamVeraSans-Roman-50"/>
     <use x="553.61328125" xlink:href="#BitstreamVeraSans-Roman-43"/>
     <use x="623.4375" xlink:href="#BitstreamVeraSans-Roman-52"/>
     <use x="692.919921875" xlink:href="#BitstreamVeraSans-Roman-29"/>
    </g>
   </g>
   <g id="text_12">
    <!--  -->
    <g transform="translate(497.031495536 185.8684375)scale(0.18 -0.18)">
     <use xlink:href="#FontAwesome-f0c3"/>
    </g>
   </g>
   <g id="text_13">
    <!-- Gibson Blocks -->
    <defs>
     <path d="M 19.671875 34.8125 
L 19.671875 8.109375 
L 35.5 8.109375 
Q 43.453125 8.109375 47.28125 11.40625 
Q 51.125 14.703125 51.125 21.484375 
Q 51.125 28.328125 47.28125 31.5625 
Q 43.453125 34.8125 35.5 34.8125 
z
M 19.671875 64.796875 
L 19.671875 42.828125 
L 34.28125 42.828125 
Q 41.5 42.828125 45.03125 45.53125 
Q 48.578125 48.25 48.578125 53.8125 
Q 48.578125 59.328125 45.03125 62.0625 
Q 41.5 64.796875 34.28125 64.796875 
z
M 9.8125 72.90625 
L 35.015625 72.90625 
Q 46.296875 72.90625 52.390625 68.21875 
Q 58.5 63.53125 58.5 54.890625 
Q 58.5 48.1875 55.375 44.234375 
Q 52.25 40.28125 46.1875 39.3125 
Q 53.46875 37.75 57.5 32.78125 
Q 61.53125 27.828125 61.53125 20.40625 
Q 61.53125 10.640625 54.890625 5.3125 
Q 48.25 0 35.984375 0 
L 9.8125 0 
z
" id="BitstreamVeraSans-Roman-42"/>
     <path d="M 9.078125 75.984375 
L 18.109375 75.984375 
L 18.109375 31.109375 
L 44.921875 54.6875 
L 56.390625 54.6875 
L 27.390625 29.109375 
L 57.625 0 
L 45.90625 0 
L 18.109375 26.703125 
L 18.109375 0 
L 9.078125 0 
z
" id="BitstreamVeraSans-Roman-6b"/>
    </defs>
    <g transform="translate(470.401339286 154.4435625)scale(0.1 -0.1)">
     <use xlink:href="#BitstreamVeraSans-Roman-47"/>
     <use x="77.490234375" xlink:href="#BitstreamVeraSans-Roman-69"/>
     <use x="105.2734375" xlink:href="#BitstreamVeraSans-Roman-62"/>
     <use x="168.75" xlink:href="#BitstreamVeraSans-Roman-73"/>
     <use x="220.849609375" xlink:href="#BitstreamVeraSans-Roman-6f"/>
     <use x="282.03125" xlink:href="#BitstreamVeraSans-Roman-6e"/>
     <use x="345.41015625" xlink:href="#BitstreamVeraSans-Roman-20"/>
     <use x="377.197265625" xlink:href="#BitstreamVeraSans-Roman-42"/>
     <use x="445.80078125" xlink:href="#BitstreamVeraSans-Roman-6c"/>
     <use x="473.583984375" xlink:href="#BitstreamVeraSans-Roman-6f"/>
     <use x="534.765625" xlink:href="#BitstreamVeraSans-Roman-63"/>
     <use x="589.74609375" xlink:href="#BitstreamVeraSans-Roman-6b"/>
     <use x="647.65625" xlink:href="#BitstreamVeraSans-Roman-73"/>
    </g>
    <!-- Assembly -->
    <g transform="translate(481.289620536 165.641375)scale(0.1 -0.1)">
     <use xlink:href="#BitstreamVeraSans-Roman-41"/>
     <use x="68.408203125" xlink:href="#BitstreamVeraSans-Roman-73"/>
     <use x="120.5078125" xlink:href="#BitstreamVeraSans-Roman-73"/>
     <use x="172.607421875" xlink:href="#BitstreamVeraSans-Roman-65"/>
     <use x="234.130859375" xlink:href="#BitstreamVeraSans-Roman-6d"/>
     <use x="331.54296875" xlink:href="#BitstreamVeraSans-Roman-62"/>
     <use x="395.01953125" xlink:href="#BitstreamVeraSans-Roman-6c"/>
     <use x="422.802734375" xlink:href="#BitstreamVeraSans-Roman-79"/>
    </g>
   </g>
   <g id="text_14">
    <!--  -->
    <g transform="translate(497.031495536 102.1684375)scale(0.18 -0.18)">
     <use xlink:href="#FontAwesome-f0c3"/>
    </g>
   </g>
   <g id="text_15">
    <!-- Golden Gate -->
    <defs>
     <path d="M 45.40625 46.390625 
L 45.40625 75.984375 
L 54.390625 75.984375 
L 54.390625 0 
L 45.40625 0 
L 45.40625 8.203125 
Q 42.578125 3.328125 38.25 0.953125 
Q 33.9375 -1.421875 27.875 -1.421875 
Q 17.96875 -1.421875 11.734375 6.484375 
Q 5.515625 14.40625 5.515625 27.296875 
Q 5.515625 40.1875 11.734375 48.09375 
Q 17.96875 56 27.875 56 
Q 33.9375 56 38.25 53.625 
Q 42.578125 51.265625 45.40625 46.390625 
M 14.796875 27.296875 
Q 14.796875 17.390625 18.875 11.75 
Q 22.953125 6.109375 30.078125 6.109375 
Q 37.203125 6.109375 41.296875 11.75 
Q 45.40625 17.390625 45.40625 27.296875 
Q 45.40625 37.203125 41.296875 42.84375 
Q 37.203125 48.484375 30.078125 48.484375 
Q 22.953125 48.484375 18.875 42.84375 
Q 14.796875 37.203125 14.796875 27.296875 
" id="BitstreamVeraSans-Roman-64"/>
    </defs>
    <g transform="translate(474.082589286 59.54575)scale(0.1 -0.1)">
     <use xlink:href="#BitstreamVeraSans-Roman-47"/>
     <use x="77.490234375" xlink:href="#BitstreamVeraSans-Roman-6f"/>
     <use x="138.671875" xlink:href="#BitstreamVeraSans-Roman-6c"/>
     <use x="166.455078125" xlink:href="#BitstreamVeraSans-Roman-64"/>
     <use x="229.931640625" xlink:href="#BitstreamVeraSans-Roman-65"/>
     <use x="291.455078125" xlink:href="#BitstreamVeraSans-Roman-6e"/>
     <use x="354.833984375" xlink:href="#BitstreamVeraSans-Roman-20"/>
     <use x="386.62109375" xlink:href="#BitstreamVeraSans-Roman-47"/>
     <use x="464.111328125" xlink:href="#BitstreamVeraSans-Roman-61"/>
     <use x="525.390625" xlink:href="#BitstreamVeraSans-Roman-74"/>
     <use x="564.599609375" xlink:href="#BitstreamVeraSans-Roman-65"/>
    </g>
    <!-- Blocks -->
    <g transform="translate(489.260714286 70.7435625)scale(0.1 -0.1)">
     <use xlink:href="#BitstreamVeraSans-Roman-42"/>
     <use x="68.603515625" xlink:href="#BitstreamVeraSans-Roman-6c"/>
     <use x="96.38671875" xlink:href="#BitstreamVeraSans-Roman-6f"/>
     <use x="157.568359375" xlink:href="#BitstreamVeraSans-Roman-63"/>
     <use x="212.548828125" xlink:href="#BitstreamVeraSans-Roman-6b"/>
     <use x="270.458984375" xlink:href="#BitstreamVeraSans-Roman-73"/>
    </g>
    <!-- Assembly -->
    <g transform="translate(481.289620536 81.941375)scale(0.1 -0.1)">
     <use xlink:href="#BitstreamVeraSans-Roman-41"/>
     <use x="68.408203125" xlink:href="#BitstreamVeraSans-Roman-73"/>
     <use x="120.5078125" xlink:href="#BitstreamVeraSans-Roman-73"/>
     <use x="172.607421875" xlink:href="#BitstreamVeraSans-Roman-65"/>
     <use x="234.130859375" xlink:href="#BitstreamVeraSans-Roman-6d"/>
     <use x="331.54296875" xlink:href="#BitstreamVeraSans-Roman-62"/>
     <use x="395.01953125" xlink:href="#BitstreamVeraSans-Roman-6c"/>
     <use x="422.802734375" xlink:href="#BitstreamVeraSans-Roman-79"/>
    </g>
   </g>
   <g id="text_16">
    <!--  -->
    <g transform="translate(617.245580357 185.8684375)scale(0.18 -0.18)">
     <use xlink:href="#FontAwesome-f10c"/>
    </g>
   </g>
   <g id="text_17">
    <!--  -->
    <g transform="translate(736.174352679 185.8684375)scale(0.18 -0.18)">
     <use xlink:href="#FontAwesome-f0c3"/>
    </g>
   </g>
   <g id="text_18">
    <!-- Chunks -->
    <g transform="translate(726.034040179 143.24575)scale(0.1 -0.1)">
     <use xlink:href="#BitstreamVeraSans-Roman-43"/>
     <use x="69.82421875" xlink:href="#BitstreamVeraSans-Roman-68"/>
     <use x="133.203125" xlink:href="#BitstreamVeraSans-Roman-75"/>
     <use x="196.58203125" xlink:href="#BitstreamVeraSans-Roman-6e"/>
     <use x="259.9609375" xlink:href="#BitstreamVeraSans-Roman-6b"/>
     <use x="317.87109375" xlink:href="#BitstreamVeraSans-Roman-73"/>
    </g>
    <!-- assembly -->
    <g transform="translate(720.788727679 154.4435625)scale(0.1 -0.1)">
     <use xlink:href="#BitstreamVeraSans-Roman-61"/>
     <use x="61.279296875" xlink:href="#BitstreamVeraSans-Roman-73"/>
     <use x="113.37890625" xlink:href="#BitstreamVeraSans-Roman-73"/>
     <use x="165.478515625" xlink:href="#BitstreamVeraSans-Roman-65"/>
     <use x="227.001953125" xlink:href="#BitstreamVeraSans-Roman-6d"/>
     <use x="324.4140625" xlink:href="#BitstreamVeraSans-Roman-62"/>
     <use x="387.890625" xlink:href="#BitstreamVeraSans-Roman-6c"/>
     <use x="415.673828125" xlink:href="#BitstreamVeraSans-Roman-79"/>
    </g>
    <!-- (Gibson) -->
    <g transform="translate(723.359821429 165.641375)scale(0.1 -0.1)">
     <use xlink:href="#BitstreamVeraSans-Roman-28"/>
     <use x="39.013671875" xlink:href="#BitstreamVeraSans-Roman-47"/>
     <use x="116.50390625" xlink:href="#BitstreamVeraSans-Roman-69"/>
     <use x="144.287109375" xlink:href="#BitstreamVeraSans-Roman-62"/>
     <use x="207.763671875" xlink:href="#BitstreamVeraSans-Roman-73"/>
     <use x="259.86328125" xlink:href="#BitstreamVeraSans-Roman-6f"/>
     <use x="321.044921875" xlink:href="#BitstreamVeraSans-Roman-6e"/>
     <use x="384.423828125" xlink:href="#BitstreamVeraSans-Roman-29"/>
    </g>
   </g>
  </g>
 </g>
 <defs>
  <clipPath id="p73e61ca5a1">
   <rect height="334.8" width="837.0" x="27.103125" y="12.0390625"/>
  </clipPath>
 </defs>
</svg>
